<svg width="84" height="68" viewBox="0 0 84 68" fill="none" xmlns="http://www.w3.org/2000/svg">
<g id="Frame 1820548923">
<g id="Group">
<g id="Group_2">
<path id="Vector" d="M22.7826 7.32142C26.7271 7.94055 30.1945 10.0587 32.5458 13.2856C37.2035 19.6777 38.4701 27.209 36.3338 35.3928C48.2966 33.1746 59.263 25.7595 59.4491 25.6289C60.6624 24.745 62.3524 25.0185 63.2362 26.2321C64.1201 27.4452 63.8433 29.1525 62.6303 30.0364C62.5477 30.0966 53.471 36.3131 42.2848 39.5305C39.5116 40.3283 36.8481 40.8747 34.3045 41.1721C33.9682 41.9386 33.6045 42.7085 33.2124 43.4835C29.1772 51.4576 23.4274 57.3693 22.3157 58.4732C21.259 59.539 19.5307 59.5533 18.465 58.4961C17.3992 57.4391 17.3848 55.7254 18.4421 54.6599L18.4854 54.6166C19.4759 53.6329 24.5288 48.4382 28.1745 41.3962C19.8775 40.977 13.159 37.4451 8.38369 30.8915C3.52983 24.2299 5.00031 14.8615 11.6617 10.0073C14.8886 7.65627 18.8379 6.70225 22.7826 7.32142ZM30.4884 36.0087C32.9848 28.5982 32.2056 22.049 28.1528 16.4867C26.6566 14.4331 24.4499 13.0853 21.9398 12.6913C19.4296 12.2973 16.9163 12.9045 14.8627 14.4007C10.6237 17.4898 9.68796 23.4514 12.7767 27.6907C17.4088 34.0476 23.8596 36.1243 30.4884 36.0087Z" fill="#67CCD1"/>
</g>
</g>
<g id="Group_3">
<g id="Group_4">
<path id="Vector_2" d="M80.5266 11.2567C81.2137 11.3646 81.8599 11.7348 82.3017 12.3412C83.1856 13.5542 82.9188 15.2543 81.7057 16.1385L75.1161 20.9401C73.903 21.824 72.2029 21.5572 71.3187 20.3441C70.4348 19.131 70.7017 17.4309 71.9148 16.5467L78.5044 11.7451C79.111 11.3033 79.8395 11.1489 80.5266 11.2567Z" fill="#67CCD1"/>
</g>
</g>
</g>
</svg>
