<svg width="72" height="71" viewBox="0 0 72 71" fill="none" xmlns="http://www.w3.org/2000/svg">
<g id="paper-plane_14732060 2" clip-path="url(#clip0_134_147533)">
<g id="Group">
<path id="Vector" d="M18.5529 6.07652L1.35473 65.1833L61.8371 54.0685L47.471 38.0743L48.2505 22.7905L32.9842 22.0119L18.5529 6.07652Z" fill="#FDCB50"/>
<path id="Vector_2" d="M53.2694 55.6434L61.8365 54.0696L47.4699 38.074L48.2494 22.7899L32.9827 22.0112L18.5519 6.07716L9.14794 38.3947C13.4871 36.7994 18.1246 36.0467 22.9107 36.2908C35.6006 36.9381 46.5477 44.4605 53.2694 55.6434Z" fill="#FD8F01"/>
</g>
<g id="Paper_Plane">
<g id="Group_2">
<path id="Vector_3" d="M35.3057 22.1323C35.3353 21.552 35.0835 20.9683 34.5824 20.5963C33.7863 20.0055 32.6627 20.1725 32.0725 20.9696L18.2402 39.6465C17.6498 40.4435 17.8167 41.5684 18.6127 42.1592C19.4088 42.75 20.5325 42.583 21.1227 41.786L34.9549 23.1091C35.1736 22.8137 35.2883 22.4735 35.3057 22.1323Z" fill="white"/>
</g>
<g id="Group_3">
<path id="Vector_4" d="M49.7911 38.1914C49.8085 37.85 49.729 37.5001 49.5416 37.1841C49.0355 36.3313 47.9347 36.0507 47.0827 36.5574L27.1167 48.4334C26.2646 48.9401 25.9842 50.0419 26.4904 50.8952C26.9965 51.748 28.0973 52.0286 28.9493 51.5219L48.9153 39.6459C49.4517 39.3268 49.7615 38.7717 49.7911 38.1914Z" fill="white"/>
</g>
<g id="Group_4">
<path id="Vector_5" d="M64.1578 54.1874C64.1816 53.7194 64.0218 53.253 63.7 52.8948L49.8293 37.4523L50.571 22.9092C50.6216 21.9184 49.8603 21.0744 48.8706 21.0239L34.3443 20.283L20.4109 4.89716C19.9745 4.41518 19.3119 4.20729 18.6787 4.35341C18.0455 4.49953 17.5406 4.97703 17.3589 5.6014L0.160798 64.7085C-0.0136107 65.3067 0.134725 65.9524 0.551655 66.4146C0.968765 66.8769 1.59513 67.0898 2.20719 66.9775L62.6897 55.8628C63.3288 55.7454 63.8546 55.2912 64.0641 54.6753C64.1186 54.5155 64.1494 54.3514 64.1578 54.1874ZM46.8958 24.5203L46.2077 38.0102C46.1835 38.4847 46.3481 38.9496 46.6655 39.3028L58.8869 52.9091L4.41914 62.9185L19.9068 9.68949L32.1835 23.2458C32.5022 23.5979 32.9474 23.8091 33.4213 23.8333L46.8958 24.5205L46.8958 24.5203Z" fill="#052A75"/>
</g>
</g>
</g>
<defs>
<clipPath id="clip0_134_147533">
<rect width="67" height="68" fill="white" transform="matrix(-0.0509384 0.998702 0.998702 0.0509384 3.41211 0)"/>
</clipPath>
</defs>
</svg>
