<svg width="86" height="86" viewBox="0 0 86 86" fill="none" xmlns="http://www.w3.org/2000/svg">
<g id="Layer_1">
<path id="Vector" d="M39.5242 25.6061C39.5987 28.8014 43.2648 30.1381 45.5426 28.0116C47.546 26.1797 46.4259 22.6784 44.0554 21.8872C43.7722 21.6303 43.2568 21.8013 43.0033 21.4369C43.0795 21.3581 43.1767 21.3775 43.2695 21.3435C43.1752 21.3007 43.2714 21.2461 43.2906 21.1798C42.786 20.723 45.5615 20.9886 45.8013 21.233C48.4797 22.318 49.262 26.0241 47.908 28.413C44.1731 34.719 34.6461 30.0358 37.6753 23.2662C38.3995 21.395 41.3254 19.5431 43.0033 21.2174C42.9353 21.2555 42.8688 21.2755 42.8297 21.3571C42.7728 21.4059 42.6794 21.3658 42.6346 21.4571C42.4896 21.6086 42.2317 21.5798 42.1156 21.7801C40.49 22.3105 39.6358 23.961 39.5242 25.6061ZM40.2801 37.5811C40.4898 38.4098 41.4447 38.4838 42.1643 38.4406C45.1725 38.446 45.5045 39.0477 46.3528 35.7862C46.8633 35.6245 47.3512 35.3986 47.8233 35.1497C50.4656 36.7195 50.5508 36.2365 52.5379 34.1925C54.2848 32.8036 53.2171 32.0236 52.5026 30.4484C52.7472 29.9624 52.9585 29.4587 53.1224 28.9395C55.9942 28.041 55.799 28.2318 55.755 25.2447C55.9811 22.7479 55.0179 23.0478 53.0829 22.3572C52.9107 21.8357 52.7066 21.3236 52.4485 20.8385C54.4368 17.5949 53.0432 17.9338 50.8998 15.5479C49.9383 14.5947 48.7437 15.9066 47.8049 16.2996C47.2482 16.0462 46.669 15.9098 46.0818 15.7048C45.3978 14.4252 45.6939 12.917 43.7496 13.2456C40.7134 13.3284 40.7824 12.969 40.1215 16.0958C39.4095 16.3654 38.6826 16.734 38.209 17.3082C40.7635 16.9023 40.9053 17.5926 41.9182 14.8604C42.5501 14.8951 43.166 14.9468 43.7795 15.0345C44.1726 16.3433 44.1239 17.5841 45.7646 17.8233C47.9836 18.8772 47.5562 19.0397 49.8334 17.8213C50.1379 18.1547 50.46 18.4736 50.7772 18.7964C49.7594 20.662 49.5274 20.6598 50.5686 22.6042C51.0791 24.6242 51.4674 24.4197 53.3031 25.0137C53.3048 25.2646 53.3106 26.0644 53.3102 26.3014C50.3381 27.1033 51.3823 27.3153 50.1741 29.6552C49.4446 30.5659 50.5117 31.6916 50.8706 32.5175C50.5311 32.8644 50.1894 33.2097 49.8468 33.5541C48.7712 33.0902 47.8529 32.162 46.7178 33.0932C44.3813 34.075 44.4923 33.5609 43.7843 36.1804C43.2433 36.1776 42.7043 36.1917 42.1649 36.21C41.3298 33.1867 41.3725 34.2817 38.9347 33.0371C38.1699 32.3065 36.8318 33.447 36.1101 33.7326C35.9699 33.5954 34.9813 32.6339 34.8708 32.5214C35.0983 31.8171 36.1173 30.6825 35.6707 29.9729C34.2617 27.5417 35.4626 27.3454 32.2811 26.5766C32.2795 26.1707 32.2635 25.0803 32.2573 24.6606C33.8517 24.0056 34.5572 24.43 34.8829 22.4657C35.8968 20.0514 35.4606 20.9155 34.2238 18.6125C34.8171 17.9238 35.3756 17.2251 35.9707 16.5381C36.2874 16.6457 38.4317 17.6469 37.4477 16.958C37.6102 16.9047 37.6988 16.9693 37.4992 16.8105C37.725 16.8939 37.9795 17.0503 38.2015 17.0889C36.9843 16.1271 36.0207 14.9259 34.7744 16.5339C32.4941 18.4496 32.7195 18.2514 33.9316 20.8097C33.6099 21.3612 33.376 21.9625 33.1634 22.5604C29.9459 23.211 30.4452 23.4485 30.4289 26.4036C30.1265 28.4528 31.6468 28.2348 33.0233 28.8121C33.1907 29.3753 33.4105 29.9233 33.682 30.4448C32.7487 32.4869 31.8365 32.6096 33.8527 34.3781C35.8488 36.5507 35.6185 36.319 38.1775 35.0603C38.6688 35.3201 39.1803 35.539 39.708 35.7146L40.2801 37.5811ZM39.2577 44.6386C39.3847 44.6135 39.5105 44.5842 39.6366 44.5562C19.314 37.1989 20.847 8.1092 43.8276 7.81714C65.3149 9.07378 66.132 39.1781 46.4157 44.5434C53.6922 46.7063 61.4502 45.6722 68.8611 46.8384C67.9564 46.0398 66.8495 44.8304 67.7276 43.6185C67.7621 43.627 67.8401 43.562 67.8921 43.5673C67.9125 43.5982 68.0424 43.4976 68.063 43.5331C68.1075 43.5811 68.2468 43.5173 68.3316 43.5159C68.4258 43.6387 68.5903 43.6477 68.7061 43.7281C68.7705 43.7728 68.8345 43.8515 68.9162 43.8537C69.0082 43.8248 68.9892 43.9129 69.0752 43.8971C69.6221 44.0367 70.0245 44.5929 70.4488 44.9732C73.6458 47.3319 71.0829 48.0781 69.1665 49.9029C69.162 49.9595 69.0799 49.9261 69.0266 49.9226C68.9954 49.9428 68.9706 49.9695 68.9281 49.9783C68.7884 50.1495 68.4911 50.116 68.4304 50.3525C68.4239 50.3654 68.4117 50.3727 68.3702 50.3452C68.3087 50.3132 68.2746 50.3528 68.2304 50.3838C68.1771 50.5604 67.7932 50.4508 67.8689 50.2677C67.7932 50.2476 67.7692 50.1138 67.6764 50.1244C67.4393 48.9869 68.2665 48.1211 68.9535 47.3194C60.2071 47.7495 51.0766 48.6921 42.6584 45.7365C32.0771 48.4837 20.8917 47.8805 10.0828 47.3829C10.6021 47.2959 11.1888 47.3146 11.7299 47.2758C11.2034 47.2267 11.5496 47.2243 11.7959 47.1113C11.6301 47.0521 11.2862 47.0805 11.0763 47.0383C20.3836 46.3361 30.0287 46.6591 39.2577 44.6386ZM39.0057 41.6087C40.3979 42.3866 41.8872 43.0002 43.3826 43.554C53.0324 40.7757 59.7667 34.0458 58.4808 23.4665C48.1293 -9.15991 8.14072 25.2926 39.0057 41.6087ZM63.414 36.5189C63.4257 32.1708 62.5431 25.9067 67.7645 24.2368C63.8019 21.2244 67.8311 14.3703 70.9248 17.2909C70.7169 17.5119 70.4328 17.6236 70.2208 17.8825C67.374 18.9924 68.4406 23.9792 71.7246 22.7974C74.1451 22.1884 73.756 18.6133 71.6862 17.9201C71.4926 17.7009 71.0747 17.849 70.9248 17.5105C70.9793 17.4325 71.0518 17.4493 71.1244 17.414C71.0526 17.371 71.1303 17.3111 71.1429 17.2501C70.7604 16.7872 73.1888 16.9822 73.4185 17.2491C76.1229 18.6099 75.9639 22.8994 73.4749 24.4294C79.273 25.9029 77.9565 32.7517 78.1639 37.3176C78.4298 39.9182 77.066 39.2394 75.1911 39.338C72.2266 39.4635 69.2391 39.4242 66.2719 39.5449C63.2889 39.7399 63.3871 39.3178 63.414 36.5189ZM65.8499 33.1079C65.8521 33.828 65.8603 36.4472 65.8615 37.1171C69.2231 37.1574 72.6661 37.0109 76.0289 37.1347C75.9656 32.9329 77.4628 26.7363 72.2844 25.075C71.3712 25.3747 70.3578 25.3974 69.438 25.1038C65.7235 26.5505 65.7444 29.6686 65.8499 33.1079ZM7.59128 38.3937C7.81007 33.5584 6.04207 26.2676 11.9219 24.2368C7.95933 21.2244 11.9887 14.3703 15.0822 17.2909C14.8742 17.5119 14.5902 17.6236 14.3782 17.8825C11.5314 18.9923 12.5979 23.9792 15.882 22.7974C18.3025 22.1884 17.9133 18.6133 15.8436 17.9201C15.65 17.7009 15.2323 17.8488 15.0822 17.5105C15.1367 17.4325 15.2091 17.4493 15.2817 17.414C15.21 17.371 15.2877 17.3111 15.3003 17.2501C14.9178 16.7872 17.3462 16.9822 17.5759 17.2491C20.2802 18.6099 20.1213 22.8994 17.6323 24.4294C22.1985 25.5539 22.3835 30.1919 22.2842 34.0791C22.1057 35.1922 23.0217 39.5038 21.3431 39.3285C17.7126 39.3763 14.055 39.4434 10.4291 39.5448C9.47947 39.5482 7.58312 39.8762 7.59128 38.3937ZM10.0075 33.1079C10.0097 33.828 10.0179 36.4472 10.019 37.1171C13.3805 37.1574 16.8236 37.0109 20.1864 37.1347C20.123 32.9329 21.6204 26.7363 16.442 25.075C15.5287 25.3747 14.5154 25.3974 13.5955 25.1038C9.88101 26.5505 9.90175 29.6686 10.0075 33.1079ZM78.0894 57.2348C77.4756 59.2333 75.3796 60.3903 73.878 61.6628C56.0312 78.0548 43.3911 82.9648 19.9768 74.423C19.7918 78.353 15.9424 77.7861 13.1163 77.818C11.4414 77.8899 9.59813 78.0741 8.46576 76.5561C7.10814 74.9799 7.83914 70.9908 7.66523 68.9073C8.17421 66.0945 6.20646 51.8261 11.2356 53.9324C8.96284 54.6346 9.89597 57.3086 9.80179 59.1167C10.0826 61.9898 10.1528 64.8873 10.1032 67.7831C10.1357 69.5404 10.1057 72.7403 10.1323 74.4803C10.3205 75.8782 12.2576 75.3612 13.2064 75.4544C14.4027 75.3524 16.1198 75.7073 17.1827 75.2597C17.7945 74.9013 17.6658 74.1362 17.6877 73.5379C17.7954 67.5531 17.9669 61.4911 17.9062 55.513C17.3639 53.601 12.8475 54.953 11.2356 54.1518C11.4232 54.066 11.6414 54.0835 11.8448 54.0447C11.631 53.9988 11.8054 53.9764 11.8693 53.8802C11.8081 53.821 11.6808 53.8494 11.6031 53.8072C14.2345 53.4919 19.1681 51.7921 19.7206 55.7531C19.8971 55.6983 20.0737 55.6522 20.2537 55.6058C19.8422 55.6364 20.1006 55.5832 20.2724 55.4343C20.1317 55.403 19.868 55.4797 19.697 55.4807C23.2112 54.2717 27.3176 54.1387 30.978 55.0493C34.2267 56.0349 34.0735 56.5794 37.7358 56.3023C42.5722 56.6884 52.3834 53.9658 51.7529 61.7598C54.3404 62.2561 57.3958 59.3581 59.6448 58.3309C63.0837 56.3543 68.1351 53.396 71.4958 51.4148C75.3004 49.4818 79.6123 53.1753 78.0894 57.2348ZM76.0557 55.4307C76.0272 53.7868 74.0521 52.7617 72.6178 53.4496C72.1736 53.691 68.8018 55.6145 68.2799 55.9052C65.1993 57.6248 61.6513 59.6695 58.5938 61.3717C56.1083 62.8436 53.409 64.6415 50.3969 63.518C49.6972 66.0479 46.5937 65.821 44.4939 65.8505C42.1839 65.876 35.3344 67.0142 34.3015 64.6291C34.344 64.5946 34.3858 64.5779 34.4129 64.4985C34.4516 64.4528 34.5115 64.4963 34.5429 64.4083C34.5703 64.3522 34.6067 64.3375 34.6446 64.3316C34.7709 64.3347 34.8739 64.192 34.9895 64.1295C36.2744 64.0159 37.4749 63.5521 38.8002 63.672C40.2892 63.638 41.8359 63.666 43.311 63.5931C45.0013 63.4522 46.9658 64.2194 48.523 63.4309C48.5477 63.3621 48.6454 63.4131 48.7085 63.4124C48.7563 63.3862 48.7988 63.3532 48.8574 63.34C49.0958 63.1292 49.4806 63.0551 49.5673 62.7117C49.425 62.1578 49.8529 61.6385 49.8288 61.0788C49.9085 59.6466 48.7255 58.2592 47.2827 58.1569C44.8026 58.0897 41.5666 58.1183 39.054 58.1028C30.7167 58.5105 30.3784 53.9752 19.7325 55.939C19.8784 61.9184 19.909 68.0537 19.9695 74.0435C45.2721 78.4683 52.7768 77.2433 72.57 59.6824C73.9304 58.4739 76.1394 57.5328 76.0557 55.4307Z" fill="#EE8727"/>
</g>
</svg>
