<svg width="86" height="86" viewBox="0 0 86 86" fill="none" xmlns="http://www.w3.org/2000/svg">
<g id="Layer_1">
<path id="Vector" d="M78.1177 3.39722H28.059C24.9146 3.39722 22.3563 5.95552 22.3563 9.09985V12.1164C21.4516 11.8208 20.4604 11.6748 19.3598 11.6748C16.6139 11.6748 14.5403 12.5613 12.8337 14.4622C10.3982 17.1782 9.92842 22.7762 11.7878 26.9416C12.6262 28.8209 13.8464 30.2237 15.3604 31.0886H15.3223C8.0541 31.0886 2.14062 37.0021 2.14062 44.2703V50.4477C2.14062 53.783 4.85498 56.4973 8.19023 56.4973H30.5144C33.1474 56.4973 35.3919 54.8056 36.2203 52.4532H78.1177C81.262 52.4532 83.8203 49.8949 83.8203 46.7505V9.09819C83.8203 5.95386 81.262 3.39722 78.1177 3.39722ZM28.059 5.3894H78.1177C80.163 5.3894 81.8281 7.05288 81.8281 9.09819V10.8829H24.3485V9.09819C24.3485 7.05288 26.012 5.3894 28.059 5.3894ZM13.6057 26.1281C12.0899 22.7331 12.422 17.902 14.3162 15.7919C15.6526 14.3011 17.1617 13.6653 19.3598 13.6653C21.5196 13.6653 23.0719 14.321 24.39 15.7919C26.2843 17.902 26.6146 22.7331 25.0989 26.1297C24.2871 27.9476 22.6319 30.1141 19.3548 30.1141C16.0743 30.1141 14.4175 27.9459 13.6057 26.1281ZM34.5718 50.4477C34.5718 52.6839 32.7522 54.5051 30.5144 54.5051H29.8852V43.8984C29.8852 43.3489 29.4386 42.9023 28.8891 42.9023C28.3396 42.9023 27.893 43.3489 27.893 43.8984V54.5051H10.8116V43.8984C10.8116 43.3489 10.365 42.9023 9.81553 42.9023C9.26602 42.9023 8.81943 43.3489 8.81943 43.8984V54.5051H8.19023C5.95234 54.5051 4.13281 52.6856 4.13281 50.4477V44.2703C4.13281 38.0995 9.15313 33.0808 15.3223 33.0808H23.3807C29.5515 33.0808 34.5701 38.1011 34.5701 44.2703V50.4477H34.5718ZM78.1177 50.461H36.564C36.564 50.456 36.564 50.4527 36.564 50.4477V44.2703C36.564 37.0021 30.6505 31.0886 23.3823 31.0886H23.3475C24.8599 30.222 26.0801 28.8209 26.9185 26.9416C28.7778 22.7762 28.308 17.1765 25.8726 14.4622C25.3961 13.9309 24.8897 13.481 24.3485 13.1058V12.8767H81.8281V46.7505C81.8281 48.7958 80.163 50.461 78.1177 50.461ZM71.2347 68.472C73.2103 67.2037 74.5234 64.9907 74.5234 62.4739C74.5234 58.5459 71.3276 55.3501 67.3997 55.3501C63.4718 55.3501 60.276 58.5459 60.276 62.4739C60.276 64.9907 61.5892 67.2053 63.5647 68.472C59.2965 69.4598 55.9828 73.0391 55.4748 77.5614C55.3121 79.009 55.7388 80.3471 56.71 81.4329C57.6795 82.5186 58.9628 83.093 60.4188 83.093H74.384C75.8399 83.093 77.1232 82.5186 78.0928 81.4329C79.064 80.3471 79.4906 79.009 79.3279 77.5614C78.8166 73.0374 75.5029 69.4582 71.2347 68.472ZM62.2665 62.4739C62.2665 59.645 64.5691 57.3423 67.398 57.3423C70.227 57.3423 72.5312 59.6433 72.5312 62.4739C72.5312 65.3044 70.2286 67.6054 67.3997 67.6054C64.5708 67.6054 62.2665 65.3028 62.2665 62.4739ZM76.6053 80.1047C76.0159 80.7655 75.2672 81.0992 74.3807 81.0992H60.4154C59.5306 81.0992 58.7818 80.7638 58.1908 80.1047C57.6015 79.444 57.3508 78.6637 57.4504 77.7838C57.9368 73.4558 61.5908 70.1903 65.9487 70.1903H68.844C73.202 70.1903 76.856 73.4541 77.3424 77.7838C77.4437 78.6637 77.1946 79.444 76.6053 80.1047ZM46.0966 68.472C48.0722 67.2037 49.3853 64.9907 49.3853 62.4739C49.3853 58.5459 46.1896 55.3501 42.2616 55.3501C38.3337 55.3501 35.1379 58.5459 35.1379 62.4739C35.1379 64.9907 36.4511 67.2053 38.4267 68.472C34.1584 69.4598 30.8447 73.0391 30.3367 77.5614C30.174 79.009 30.6007 80.3471 31.5719 81.4329C32.5431 82.5186 33.8247 83.093 35.2807 83.093H49.2459C50.7019 83.093 51.9852 82.5186 52.9547 81.4329C53.9259 80.3471 54.3525 79.009 54.1898 77.5614C53.6785 73.0374 50.3665 69.4582 46.0966 68.472ZM37.1284 62.4739C37.1284 59.645 39.4311 57.3423 42.26 57.3423C45.0889 57.3423 47.3915 59.645 47.3915 62.4739C47.3915 65.3028 45.0889 67.6054 42.26 67.6054C39.4311 67.6054 37.1284 65.3028 37.1284 62.4739ZM51.4672 80.1047C50.8778 80.7655 50.1291 81.0992 49.2426 81.0992H35.2773C34.3925 81.0992 33.6437 80.7638 33.0527 80.1047C32.4634 79.444 32.2144 78.6637 32.3123 77.7838C32.7987 73.4558 36.4527 70.1903 40.8106 70.1903H43.706C48.0639 70.1903 51.7179 73.4541 52.2043 77.7838C52.3072 78.6637 52.0582 79.444 51.4672 80.1047ZM40.1814 29.8568H52.8003C53.3498 29.8568 53.7964 29.4102 53.7964 28.8607V22.3811L55.2108 20.9667C56.2069 19.9706 56.2053 18.3519 55.2108 17.3558C54.8124 16.9574 54.3144 16.7216 53.7964 16.6419V16.2435C53.7964 15.694 53.3498 15.2474 52.8003 15.2474H40.1814C39.6319 15.2474 39.1854 15.694 39.1854 16.2435V28.8624C39.1854 29.4102 39.6303 29.8568 40.1814 29.8568ZM53.9641 19.1587C53.9641 19.3098 53.906 19.4509 53.8014 19.5555L48.8226 24.5343C48.6084 24.7485 48.2448 24.7485 48.0307 24.5343L45.7928 22.2964C45.6882 22.1918 45.6301 22.0507 45.6301 21.8997C45.6301 21.7486 45.6882 21.6075 45.7928 21.5029C45.8974 21.3983 46.0385 21.3402 46.1895 21.3402C46.3406 21.3402 46.4817 21.3983 46.5863 21.5029L47.7235 22.6401C48.112 23.0286 48.7429 23.0286 49.133 22.6401L53.0111 18.762C53.2253 18.5478 53.5889 18.5478 53.8047 18.762C53.906 18.8682 53.9641 19.0093 53.9641 19.1587ZM41.1775 17.2379H51.7312C51.688 17.2761 51.6432 17.3126 51.6017 17.3558L48.4274 20.53L47.9958 20.0984C47.5144 19.6169 46.8735 19.353 46.1912 19.353C45.5089 19.353 44.8664 19.6186 44.3866 20.0984C43.9052 20.5798 43.6412 21.2207 43.6412 21.903C43.6412 22.5853 43.9068 23.2278 44.3866 23.7076L46.6245 25.9455C47.106 26.4269 47.7468 26.6909 48.4291 26.6909C49.1114 26.6909 49.7539 26.4252 50.2337 25.9455L51.8059 24.3733V27.8646H41.1792V17.2379H41.1775ZM57.472 22.5504C57.472 22.0009 57.9186 21.5543 58.4681 21.5543H67.2918C67.8413 21.5543 68.2879 22.0009 68.2879 22.5504C68.2879 23.1 67.8413 23.5465 67.2918 23.5465H58.4681C57.9186 23.5465 57.472 23.1016 57.472 22.5504ZM78.1857 28.8607C78.1857 29.4102 77.7392 29.8568 77.1897 29.8568H58.4681C57.9186 29.8568 57.472 29.4102 57.472 28.8607C57.472 28.3112 57.9186 27.8646 58.4681 27.8646H77.1897C77.7408 27.8646 78.1857 28.3095 78.1857 28.8607ZM57.472 40.2726C57.472 39.7231 57.9186 39.2765 58.4681 39.2765H67.2918C67.8413 39.2765 68.2879 39.7231 68.2879 40.2726C68.2879 40.8221 67.8413 41.2687 67.2918 41.2687H58.4681C57.9186 41.2687 57.472 40.8238 57.472 40.2726ZM78.1857 46.5812C78.1857 47.1307 77.7392 47.5773 77.1897 47.5773H58.4681C57.9186 47.5773 57.472 47.1307 57.472 46.5812C57.472 46.0317 57.9186 45.5851 58.4681 45.5851H77.1897C77.7408 45.5851 78.1857 46.0317 78.1857 46.5812ZM53.7964 34.3625V33.9624C53.7964 33.4128 53.3498 32.9663 52.8003 32.9663H40.1814C39.6319 32.9663 39.1854 33.4128 39.1854 33.9624V46.5812C39.1854 47.1307 39.6319 47.5773 40.1814 47.5773H52.8003C53.3498 47.5773 53.7964 47.1307 53.7964 46.5812V40.1016L55.2108 38.6872C56.2069 37.6911 56.2069 36.0724 55.2108 35.0763C54.8124 34.6779 54.3144 34.4421 53.7964 34.3625ZM51.8042 45.5868H41.1775V34.9601H51.7312C51.688 34.9983 51.6432 35.0348 51.6017 35.0763L48.4274 38.2505L47.9958 37.8189C46.9997 36.8228 45.3811 36.8245 44.385 37.8189C43.3905 38.815 43.3905 40.4336 44.385 41.4297L46.6229 43.6676C47.1209 44.1657 47.775 44.4147 48.4274 44.4147C49.0799 44.4147 49.7356 44.1657 50.232 43.6676L51.8042 42.0955V45.5868ZM53.8014 37.2777L48.8226 42.2565C48.6084 42.4707 48.2448 42.4707 48.0307 42.2565L45.7928 40.0186C45.5786 39.8044 45.5786 39.4409 45.7928 39.225C45.8974 39.1205 46.0385 39.0624 46.1895 39.0624C46.3406 39.0624 46.4817 39.1205 46.5863 39.225L47.7235 40.3623C48.112 40.7507 48.7429 40.7507 49.133 40.3623L53.0111 36.4841C53.2253 36.27 53.5889 36.27 53.8047 36.4841C54.0172 36.7 54.0172 37.0635 53.8014 37.2777Z" fill="#EE8727"/>
</g>
</svg>
