<svg width="99" height="99" viewBox="0 0 99 99" fill="none" xmlns="http://www.w3.org/2000/svg">
<g id="Layer_1">
<path id="Vector" d="M92.3654 44.5802C89.0536 44.5802 86.2077 42.6758 84.9378 39.61C83.6679 36.544 84.3335 33.1847 86.6753 30.8428C88.2818 29.236 88.2818 26.6218 86.6753 25.0148L80.6794 19.0191C79.0728 17.4128 76.4584 17.4128 74.8514 19.0191C72.5095 21.361 69.1502 22.0269 66.0844 20.7566C63.0188 19.4869 61.1143 16.6408 61.1143 13.3292C61.1143 11.0569 59.2658 9.20837 56.9935 9.20837H48.5147C46.2425 9.20837 44.3939 11.0569 44.3939 13.3292C44.3939 16.3669 42.8988 18.5208 41.1058 19.8148V5.85097C41.1058 3.94458 39.5548 2.39355 37.6482 2.39355H5.66463C3.75806 2.39355 2.20703 3.94458 2.20703 5.85097V26.1027C2.20703 28.0092 3.75806 29.5603 5.66463 29.5603H17.0627C17.2457 30.5019 17.6337 31.8455 18.4551 33.236C19.0475 34.2389 19.9218 35.3544 21.2003 36.3552C21.2295 38.4374 20.455 40.4814 19.0261 42.0381C17.5217 43.6773 15.4323 44.58 13.1427 44.58C10.8704 44.58 9.02185 46.4288 9.02185 48.701V57.1799C9.02185 59.4519 10.8704 61.3007 13.1427 61.3007C16.4543 61.3007 19.3004 63.2052 20.5703 66.2711C21.8402 69.3369 21.1745 72.6964 18.8328 75.0381C18.0545 75.8164 17.6259 76.8512 17.6259 77.9522C17.6259 79.0532 18.0545 80.0878 18.8328 80.8663L24.8285 86.8618C25.6068 87.6401 26.6416 88.0687 27.7426 88.0687C28.8434 88.0687 29.8782 87.6401 30.6566 86.862C33.0018 84.5164 36.362 83.8483 39.4263 85.1176C42.4904 86.3868 44.3939 89.2354 44.3939 92.5519C44.3939 94.8242 46.2425 96.6729 48.5147 96.6729H56.9935C59.2658 96.6729 61.1143 94.8242 61.1143 92.5519C61.1143 89.2401 63.0188 86.394 66.0846 85.1243C69.1506 83.8544 72.5099 84.5201 74.8516 86.8618C75.6299 87.6399 76.6647 88.0685 77.7657 88.0685C78.8667 88.0685 79.9015 87.6399 80.6796 86.8618L86.6754 80.8661C87.4537 80.0878 87.8824 79.053 87.8824 77.952C87.8824 76.851 87.4537 75.8164 86.6754 75.0379C84.3337 72.6962 83.6679 69.3369 84.938 66.2709C86.2079 63.2051 89.054 61.3005 92.3656 61.3005C94.6378 61.3005 96.4864 59.4517 96.4864 57.1797V48.7009C96.4862 46.4288 94.6376 44.5802 92.3654 44.5802ZM19.5708 28.1968C19.5557 27.4697 18.9622 26.8886 18.2351 26.8886H5.66463C5.23141 26.8886 4.87891 26.5361 4.87891 26.1029V5.85097C4.87891 5.41793 5.23141 5.06543 5.66463 5.06543H37.6482C38.0814 5.06543 38.4339 5.41793 38.4339 5.85097V26.1027C38.4339 26.5361 38.0814 26.8884 37.6482 26.8884H26.8328C26.2087 26.8884 25.6678 27.3205 25.5299 27.9291C24.7579 31.3354 25.3119 34.0561 26.0513 35.9169C19.8288 33.882 19.5788 28.4505 19.5708 28.1968ZM93.8143 57.1799C93.8143 57.979 93.1643 58.6288 92.3654 58.6288C87.9526 58.6288 84.1606 61.1654 82.4691 65.2486C80.7778 69.332 81.6655 73.8072 84.7859 76.9275C85.0595 77.201 85.2101 77.565 85.2101 77.952C85.2101 78.3391 85.0593 78.7032 84.7859 78.9765L78.79 84.9724C78.5165 85.2461 78.1525 85.3966 77.7655 85.3966C77.3784 85.3966 77.0143 85.246 76.7408 84.9722C73.6206 81.8518 69.1456 80.9644 65.062 82.6555C60.9788 84.3468 58.4423 88.1387 58.4423 92.5517C58.4423 93.3508 57.7922 94.0008 56.9933 94.0008H48.5145C47.7156 94.0008 47.0656 93.3508 47.0656 92.5517C47.0656 88.1342 44.5302 84.3395 40.4487 82.6488C36.3674 80.9585 31.8912 81.8486 28.7672 84.9722C28.4936 85.246 28.1296 85.3966 27.7426 85.3966C27.3553 85.3966 26.9914 85.246 26.7179 84.9722L20.7222 78.9765C20.4485 78.703 20.2979 78.3391 20.2979 77.952C20.2979 77.565 20.4487 77.2008 20.7222 76.9275C23.8426 73.807 24.7302 69.332 23.0389 65.2488C21.3476 61.1656 17.5556 58.6288 13.1427 58.6288C12.3438 58.6288 11.6937 57.979 11.6937 57.1799V48.701C11.6937 47.902 12.3438 47.2519 13.1427 47.2519C16.1895 47.2519 18.978 46.042 20.9945 43.8447C22.5213 42.1813 23.4832 40.0949 23.7775 37.8998C25.0831 38.487 26.6442 38.9433 28.5124 39.1769C28.5676 39.1838 28.6226 39.1872 28.677 39.1872C29.1653 39.1872 29.619 38.9164 29.8535 38.4773C30.1142 37.9895 30.0442 37.3879 29.6822 36.97C29.5778 36.8493 27.2985 34.1515 27.9443 29.5603H37.6482C39.5548 29.5603 41.1058 28.0092 41.1058 26.1027V22.9269C44.805 21.1183 47.0658 17.5189 47.0658 13.3292C47.0658 12.5301 47.7158 11.8803 48.5147 11.8803H56.9935C57.7926 11.8803 58.4425 12.5301 58.4425 13.3292C58.4425 17.742 60.979 21.5339 65.0622 23.2254C69.1456 24.9169 73.6206 24.0293 76.7408 20.9087C77.3061 20.3436 78.2253 20.3436 78.7902 20.9087L84.786 26.9042C85.351 27.4693 85.351 28.3887 84.786 28.9536C81.6657 32.0741 80.778 36.5491 82.4693 40.6323C84.1606 44.7156 87.9526 47.2521 92.3656 47.2521C93.1645 47.2521 93.8145 47.9022 93.8145 48.7012V57.1799H93.8143ZM52.754 26.8796C45.7928 26.8796 39.2484 29.5904 34.3261 34.5126C29.4037 39.435 26.6931 45.9794 26.6931 52.9406C26.6931 67.3105 38.3841 79.0015 52.754 79.0015C59.7152 79.0015 66.2596 76.2907 71.182 71.3685C76.1043 66.4461 78.815 59.9018 78.815 52.9406C78.815 38.5706 67.124 26.8796 52.754 26.8796ZM38.3692 71.3702C38.356 71.2769 38.3484 71.1838 38.3484 71.0901C38.3484 66.4572 40.6182 62.0839 44.347 59.3933L51.6374 70.4954C51.8843 70.8717 52.304 71.0981 52.754 71.0981C53.204 71.0981 53.6237 70.8713 53.8707 70.4954L61.1615 59.3929C64.8903 62.0835 67.16 66.4568 67.16 71.0901C67.16 71.1901 67.1518 71.2891 67.1369 71.3887C63.0448 74.5921 58.0331 76.3294 52.7542 76.3294C47.3343 76.3294 42.3394 74.4759 38.3692 71.3702ZM53.8505 58.1423C53.8505 58.1421 53.8506 58.1417 53.8508 58.1414L53.8505 58.1423ZM53.8903 58.0202H51.6179L51.1841 56.6848H54.3243L53.8903 58.0202ZM51.9679 60.6921H53.5401L54.1457 65.2093L52.754 67.3286L51.3624 65.2094L51.9679 60.6921ZM69.7063 69.055C69.0722 63.8411 66.0342 59.112 61.4586 56.3961C60.8443 56.0312 60.0521 56.2146 59.6601 56.8117L56.3843 61.7999L56.088 59.589C56.2147 59.4 56.3185 59.1926 56.3916 58.9677L56.9403 57.2791C57.1869 56.5203 57.055 55.6834 56.5874 55.0401C56.12 54.3969 55.3648 54.0127 54.5671 54.0127H50.941C50.1432 54.0127 49.388 54.3969 48.9206 55.0401C48.4533 55.6834 48.3214 56.5205 48.5678 57.2791L49.1165 58.9677C49.1894 59.1924 49.2934 59.3998 49.4201 59.5888L49.1237 61.7999L45.8482 56.8119C45.4562 56.2149 44.664 56.0317 44.0496 56.3962C39.4786 59.1095 36.4418 63.8321 35.8036 69.04C31.8157 64.8434 29.365 59.1727 29.365 52.9402C29.365 46.6927 31.7977 40.8192 36.2155 36.4016C40.633 31.9842 46.5066 29.5511 52.754 29.5511C65.6508 29.5511 76.1431 40.0434 76.1431 52.9402C76.1433 58.9901 73.8619 64.689 69.7063 69.055ZM52.754 35.2701C48.0057 35.2701 44.1424 39.1327 44.1424 43.8804C44.1424 48.6289 48.0055 52.4921 52.754 52.4921C57.5025 52.4921 61.3657 48.6289 61.3657 43.8804C61.3657 39.1327 57.5025 35.2701 52.754 35.2701ZM52.754 49.8202C49.4789 49.8202 46.8143 47.1555 46.8143 43.8804C46.8143 40.606 49.4787 37.942 52.754 37.942C56.0294 37.942 58.6938 40.606 58.6938 43.8804C58.6938 47.1555 56.0294 49.8202 52.754 49.8202ZM9.02204 9.75191C9.02204 9.01409 9.62016 8.41597 10.358 8.41597H32.9548C33.6926 8.41597 34.2908 9.01409 34.2908 9.75191C34.2908 10.4897 33.6926 11.0879 32.9548 11.0879H10.358C9.62016 11.0879 9.02204 10.4897 9.02204 9.75191ZM9.02204 15.977C9.02204 15.2392 9.62016 14.6411 10.358 14.6411H32.9548C33.6926 14.6411 34.2908 15.2392 34.2908 15.977C34.2908 16.7148 33.6926 17.3129 32.9548 17.3129H10.358C9.62016 17.3129 9.02204 16.7148 9.02204 15.977ZM32.9548 23.5379H10.358C9.62016 23.5379 9.02204 22.9397 9.02204 22.2019C9.02204 21.4641 9.62016 20.866 10.358 20.866H32.9548C33.6926 20.866 34.2908 21.4641 34.2908 22.2019C34.2908 22.9397 33.6926 23.5379 32.9548 23.5379Z" fill="white"/>
</g>
</svg>
