<svg width="86" height="86" viewBox="0 0 86 86" fill="none" xmlns="http://www.w3.org/2000/svg">
<g id="Frame" clip-path="url(#clip0_89_11)">
<g id="Outline">
<g id="Outline_2">
<path id="Vector" d="M19.2483 47.8928H12.9118C12.4314 47.8935 11.9709 48.0847 11.6312 48.4244C11.2915 48.7641 11.1003 49.2246 11.0996 49.705V75.2993C11.1003 75.7798 11.2915 76.2403 11.6312 76.58C11.9709 76.9197 12.4314 77.1109 12.9118 77.1116H19.2483C19.7287 77.1109 20.1893 76.9197 20.529 76.58C20.8687 76.2403 21.0598 75.7798 21.0605 75.2993V49.705C21.0598 49.2246 20.8687 48.7641 20.529 48.4244C20.1893 48.0847 19.7287 47.8935 19.2483 47.8928ZM19.0684 75.1194H13.0918V49.885H19.0684V75.1194Z" fill="#EE8727"/>
<path id="Vector_2" d="M31.9206 77.1116H37.427C38.0176 77.111 38.5838 76.8762 39.0014 76.4586C39.4189 76.0411 39.6538 75.4749 39.6543 74.8843V38.831C39.6538 38.2405 39.4189 37.6743 39.0014 37.2567C38.5838 36.8391 38.0176 36.6043 37.427 36.6038H31.9206C31.3301 36.6043 30.7639 36.8391 30.3463 37.2567C29.9287 37.6743 29.6939 38.2405 29.6934 38.831V74.8843C29.6939 75.4749 29.9287 76.0411 30.3463 76.4586C30.7639 76.8762 31.3301 77.111 31.9206 77.1116ZM31.6855 38.831C31.6855 38.8001 31.6915 38.7695 31.7033 38.741C31.715 38.7124 31.7324 38.6865 31.7542 38.6646C31.7761 38.6428 31.802 38.6254 31.8306 38.6137C31.8591 38.6019 31.8897 38.5959 31.9206 38.5959H37.427C37.4579 38.5959 37.4885 38.6019 37.5171 38.6137C37.5457 38.6254 37.5716 38.6428 37.5935 38.6646C37.6153 38.6865 37.6326 38.7124 37.6444 38.741C37.6562 38.7695 37.6622 38.8001 37.6621 38.831V74.8843C37.6622 74.9152 37.6562 74.9458 37.6444 74.9744C37.6326 75.0029 37.6153 75.0289 37.5935 75.0507C37.5716 75.0726 37.5457 75.0899 37.5171 75.1017C37.4885 75.1134 37.4579 75.1195 37.427 75.1194H31.9206C31.8897 75.1195 31.8591 75.1134 31.8306 75.1017C31.802 75.0899 31.7761 75.0726 31.7542 75.0507C31.7324 75.0289 31.715 75.0029 31.7033 74.9744C31.6915 74.9458 31.6855 74.9152 31.6855 74.8843V38.831Z" fill="#EE8727"/>
<path id="Vector_3" d="M7.44727 85.7444H61.2363C63.0849 85.7423 64.8572 85.007 66.1644 83.6998C67.4716 82.3927 68.2069 80.6204 68.209 78.7718V74.9468C68.8682 74.8286 69.5165 74.6796 70.154 74.4998L75.1644 83.1785C75.8395 84.3479 76.9516 85.2013 78.2559 85.5508C79.5602 85.9003 80.95 85.7173 82.1194 85.0422C83.2889 84.367 84.1422 83.255 84.4917 81.9506C84.8412 80.6463 84.6583 79.2566 83.9831 78.0871L78.9668 69.3998C81.6862 66.7534 83.6234 63.4083 84.5651 59.7324C85.5069 56.0564 85.4169 52.192 84.305 48.5639C83.1932 44.9358 81.1024 41.6846 78.2627 39.1675C75.423 36.6505 71.9443 34.9652 68.209 34.2968V21.4804C68.2118 20.5642 68.0327 19.6566 67.6822 18.8101C67.3317 17.9636 66.8167 17.1951 66.167 16.5491L52.4043 2.78641C51.7581 2.13659 50.9894 1.62149 50.1427 1.27097C49.2959 0.920442 48.3881 0.741469 47.4716 0.744421H7.44727C5.59865 0.74653 3.82635 1.48182 2.51918 2.78899C1.21201 4.09616 0.476718 5.86846 0.474609 7.71708L0.474609 78.7718C0.476718 80.6204 1.21201 82.3927 2.51918 83.6998C3.82635 85.007 5.59865 85.7423 7.44727 85.7444ZM82.2579 79.0832C82.4673 79.436 82.6045 79.8268 82.6617 80.2331C82.7189 80.6393 82.6949 81.0528 82.5911 81.4497C82.4873 81.8466 82.3058 82.2189 82.057 82.5451C81.8082 82.8713 81.4972 83.1449 81.1419 83.35C80.7866 83.5551 80.3941 83.6876 79.9872 83.7399C79.5803 83.7922 79.1671 83.7632 78.7715 83.6545C78.3759 83.5459 78.0058 83.3599 77.6827 83.1072C77.3595 82.8545 77.0897 82.5401 76.8889 82.1824L75.6126 79.9711L80.9816 76.8719L82.2579 79.0832ZM79.9855 75.1466L74.6165 78.2458L72.0798 73.8524C74.0141 73.0925 75.8228 72.0452 77.4448 70.7459L79.9855 75.1466ZM83.2195 54.6225C83.2195 58.3131 82.1251 61.9208 80.0746 64.9895C78.0242 68.0581 75.1099 70.4499 71.7002 71.8622C68.2905 73.2746 64.5386 73.6441 60.9189 72.9241C57.2992 72.2041 53.9742 70.4269 51.3646 67.8172C48.7549 65.2075 46.9777 61.8826 46.2577 58.2629C45.5377 54.6432 45.9072 50.8912 47.3196 47.4815C48.7319 44.0718 51.1236 41.1575 54.1923 39.1071C57.2609 37.0567 60.8687 35.9623 64.5593 35.9623C69.5059 35.9692 74.248 37.9374 77.7455 41.4355C81.2431 44.9335 83.2106 49.6758 83.2168 54.6225H83.2195ZM56.2559 73.5297V74.707C56.2559 74.8164 56.2124 74.9213 56.1351 74.9986C56.0577 75.076 55.9528 75.1194 55.8435 75.1194H50.6917C50.5823 75.1194 50.4774 75.076 50.4001 74.9986C50.3227 74.9213 50.2793 74.8164 50.2793 74.707V69.5274C52.0228 71.1998 54.0455 72.5544 56.2559 73.5297ZM50.2793 39.7169V27.0552C50.2793 26.9459 50.3227 26.841 50.4001 26.7636C50.4774 26.6863 50.5823 26.6429 50.6917 26.6429H55.8435C55.8976 26.6429 55.9513 26.6535 56.0013 26.6742C56.0513 26.695 56.0968 26.7253 56.1351 26.7636C56.1734 26.8019 56.2037 26.8474 56.2245 26.8974C56.2452 26.9475 56.2559 27.0011 56.2559 27.0552V35.714C54.0456 36.6897 52.0229 38.0444 50.2793 39.7169ZM50.9434 4.14973C50.9593 4.16567 50.9772 4.17895 50.9932 4.19489L64.7559 17.9602C64.7718 17.9762 64.7851 17.9941 64.801 18.01H53.9316C53.1394 18.0092 52.3798 17.694 51.8196 17.1338C51.2594 16.5736 50.9442 15.814 50.9434 15.0218V4.14973ZM2.4668 7.71708C2.4682 6.39661 2.99338 5.13062 3.9271 4.19691C4.86081 3.26319 6.12679 2.73801 7.44727 2.73661H47.4716C47.9733 2.73634 48.4721 2.81179 48.9512 2.9604V15.0218C48.9526 16.3422 49.4778 17.6082 50.4115 18.5419C51.3452 19.4756 52.6112 20.0008 53.9316 20.0022H65.993C66.1416 20.4813 66.2171 20.9801 66.2168 21.4818V34.0398C65.6683 33.996 65.1158 33.9668 64.5566 33.9668C62.4151 33.9662 60.2867 34.2998 58.248 34.9556V27.0532C58.2468 26.4161 57.993 25.8054 57.5423 25.355C57.0916 24.9047 56.4806 24.6514 55.8435 24.6507H50.6917C50.0542 24.6514 49.443 24.9049 48.9922 25.3557C48.5414 25.8065 48.2878 26.4177 48.2871 27.0552V41.9163C45.4457 45.5409 43.9016 50.0135 43.9016 54.6191C43.9016 59.2247 45.4457 63.6974 48.2871 67.322V74.7044C48.2871 75.3424 48.5404 75.9542 48.9912 76.4056C49.4421 76.857 50.0537 77.1109 50.6917 77.1116H55.8435C56.481 77.1109 57.0922 76.8573 57.543 76.4065C57.9938 75.9558 58.2473 75.3446 58.248 74.707V74.288C60.2866 74.9442 62.4151 75.2778 64.5566 75.2768C65.1158 75.2768 65.6683 75.2482 66.2168 75.2044V78.7718C66.2154 80.0922 65.6902 81.3582 64.7565 82.2919C63.8228 83.2256 62.5568 83.7508 61.2363 83.7522H7.44727C6.12679 83.7508 4.86081 83.2256 3.9271 82.2919C2.99338 81.3582 2.4682 80.0922 2.4668 78.7718V7.71708Z" fill="#EE8727"/>
<path id="Vector_4" d="M49.9082 54.6218C49.9081 57.519 50.7671 60.3512 52.3766 62.7602C53.9861 65.1693 56.2739 67.0469 58.9505 68.1557C61.6272 69.2646 64.5726 69.5547 67.4141 68.9896C70.2557 68.4245 72.8659 67.0294 74.9146 64.9808C76.9633 62.9321 78.3585 60.322 78.9238 57.4805C79.4891 54.6389 79.199 51.6935 78.0903 49.0168C76.9816 46.3401 75.1041 44.0523 72.6951 42.4427C70.2862 40.833 67.454 39.9739 64.5568 39.9739C60.6732 39.9783 56.9499 41.5229 54.2038 44.269C51.4576 47.015 49.9128 50.7382 49.9082 54.6218ZM77.2131 54.6218C77.2133 57.125 76.4711 59.572 75.0805 61.6534C73.6898 63.7349 71.7132 65.3572 69.4006 66.3152C67.088 67.2732 64.5432 67.524 62.088 67.0357C59.6329 66.5474 57.3777 65.3421 55.6076 63.5721C53.8375 61.8021 52.632 59.5469 52.1436 57.0918C51.6552 54.6367 51.9058 52.0919 52.8637 49.7792C53.8216 47.4665 55.4438 45.4898 57.5252 44.0991C59.6065 42.7084 62.0535 41.9661 64.5568 41.9661C67.9122 41.9698 71.1291 43.3043 73.5018 45.6769C75.8746 48.0495 77.2093 51.2663 77.2131 54.6218Z" fill="#EE8727"/>
<path id="Vector_5" d="M17.0762 29.6311C19.5059 29.6311 21.8812 28.9106 23.9014 27.5607C25.9217 26.2108 27.4963 24.2921 28.4262 22.0473C29.356 19.8025 29.5993 17.3323 29.1253 14.9492C28.6512 12.5662 27.4812 10.3771 25.7631 8.65904C24.045 6.94093 21.856 5.77088 19.4729 5.29685C17.0898 4.82283 14.6197 5.06611 12.3748 5.99595C10.13 6.92578 8.21135 8.5004 6.86144 10.5207C5.51153 12.541 4.79102 14.9162 4.79102 17.346C4.79471 20.603 6.09022 23.7257 8.39333 26.0288C10.6964 28.3319 13.8191 29.6274 17.0762 29.6311ZM17.0762 27.6389C14.5847 27.6386 12.1789 26.7298 10.3094 25.0829C10.8851 23.7674 11.8317 22.6482 13.0335 21.8623C14.2354 21.0764 15.6402 20.6578 17.0762 20.6578C18.5121 20.6578 19.917 21.0764 21.1188 21.8623C22.3206 22.6482 23.2673 23.7674 23.843 25.0829C21.9735 26.7298 19.5676 27.6386 17.0762 27.6389ZM17.0762 7.05298C18.989 7.0495 20.8648 7.58013 22.4923 8.58511C24.1198 9.59009 25.4344 11.0295 26.2881 12.7413C27.1418 14.453 27.5006 16.3691 27.3241 18.2738C27.1476 20.1784 26.4429 21.996 25.2893 23.5217C24.4809 22.0505 23.2922 20.8235 21.8475 19.9688C20.4027 19.1141 18.7548 18.6632 17.0762 18.6632C15.3975 18.6632 13.7497 19.1141 12.3049 19.9688C10.8601 20.8235 9.67141 22.0505 8.86305 23.5217C7.70942 21.996 7.0047 20.1784 6.82823 18.2738C6.65177 16.3691 7.01057 14.453 7.86424 12.7413C8.7179 11.0295 10.0325 9.59009 11.6601 8.58511C13.2876 7.58013 15.1634 7.0495 17.0762 7.05298Z" fill="#EE8727"/>
<path id="Vector_6" d="M17.0762 17.7756C17.9627 17.7756 18.8293 17.5127 19.5665 17.0202C20.3036 16.5277 20.8781 15.8276 21.2174 15.0086C21.5567 14.1895 21.6454 13.2882 21.4725 12.4187C21.2995 11.5492 20.8726 10.7505 20.2457 10.1237C19.6188 9.49679 18.8202 9.06988 17.9506 8.89692C17.0811 8.72397 16.1799 8.81273 15.3608 9.152C14.5418 9.49126 13.8417 10.0658 13.3492 10.8029C12.8566 11.54 12.5938 12.4067 12.5938 13.2932C12.5952 14.4816 13.0679 15.6209 13.9082 16.4612C14.7485 17.3015 15.8878 17.7742 17.0762 17.7756ZM17.0762 10.803C17.5687 10.803 18.0502 10.949 18.4597 11.2227C18.8692 11.4963 19.1884 11.8852 19.3768 12.3402C19.5653 12.7953 19.6146 13.296 19.5186 13.779C19.4225 14.2621 19.1853 14.7058 18.837 15.0541C18.4888 15.4023 18.0451 15.6395 17.562 15.7356C17.0789 15.8317 16.5782 15.7824 16.1232 15.5939C15.6682 15.4054 15.2792 15.0862 15.0056 14.6767C14.732 14.2672 14.5859 13.7857 14.5859 13.2932C14.5868 12.633 14.8495 12.0001 15.3163 11.5333C15.7831 11.0665 16.416 10.8039 17.0762 10.803Z" fill="#EE8727"/>
<path id="Vector_7" d="M60.2619 54.0326L57.419 58.2972C57.3465 58.4063 57.2961 58.5285 57.2708 58.657C57.2455 58.7854 57.2457 58.9176 57.2715 59.046C57.2972 59.1744 57.348 59.2965 57.421 59.4052C57.4939 59.514 57.5876 59.6073 57.6966 59.6798C57.8056 59.7524 57.9278 59.8028 58.0563 59.8281C58.1848 59.8534 58.317 59.8532 58.4454 59.8274C58.5738 59.8016 58.6958 59.7508 58.8046 59.6778C58.9133 59.6049 59.0066 59.5113 59.0792 59.4022L61.922 55.1376C61.9965 55.0271 62.0924 54.9326 62.2039 54.8595C62.3155 54.7865 62.4405 54.7365 62.5716 54.7125C62.7027 54.6884 62.8374 54.6908 62.9676 54.7194C63.0978 54.7481 63.2209 54.8024 63.3298 54.8793L64.6294 55.809C64.9561 56.04 65.3256 56.2033 65.7163 56.2895C66.1069 56.3756 66.5109 56.3829 66.9044 56.3107C67.2979 56.2386 67.673 56.0886 68.0077 55.8694C68.3424 55.6503 68.63 55.3665 68.8535 55.0347L71.6964 50.7701C71.7689 50.6611 71.8193 50.5389 71.8446 50.4104C71.8699 50.2819 71.8697 50.1497 71.8439 50.0213C71.8181 49.8929 71.7673 49.7709 71.6944 49.6621C71.6214 49.5534 71.5278 49.4601 71.4188 49.3875C71.3098 49.315 71.1875 49.2646 71.0591 49.2393C70.9306 49.214 70.7984 49.2142 70.67 49.24C70.5416 49.2657 70.4196 49.3166 70.3108 49.3895C70.2021 49.4624 70.1088 49.5561 70.0362 49.6651L67.1934 53.9297C67.1189 54.0403 67.0231 54.1349 66.9115 54.208C66.8 54.2811 66.675 54.3311 66.5438 54.3552C66.4127 54.3792 66.278 54.3768 66.1478 54.3481C66.0176 54.3194 65.8944 54.265 65.7855 54.188L64.486 53.2583C64.1592 53.0276 63.7897 52.8644 63.3991 52.7783C63.0084 52.6922 62.6045 52.6851 62.2111 52.7572C61.8176 52.8293 61.4425 52.9793 61.1078 53.1983C60.7731 53.4173 60.4855 53.701 60.2619 54.0326Z" fill="#EE8727"/>
</g>
</g>
</g>
<defs>
<clipPath id="clip0_89_11">
<rect width="85" height="85" fill="white" transform="translate(0.474609 0.744385)"/>
</clipPath>
</defs>
</svg>
