<svg width="61" height="60" viewBox="0 0 61 60" fill="none" xmlns="http://www.w3.org/2000/svg">
<g id="Frame" clip-path="url(#clip0_157_149083)">
<g id="Layer_x0020_1">
<path id="Vector" fill-rule="evenodd" clip-rule="evenodd" d="M24.7675 47.3448H15.6602C14.7346 47.3448 14.7346 45.9386 15.6602 45.9386H24.7679C25.6932 45.9386 25.6937 47.3448 24.7675 47.3448ZM33.5682 35.6217C33.0191 35.6217 31.8233 34.0789 31.1521 33.3595C30.5198 32.6818 31.5498 31.7243 32.1798 32.4L33.549 33.8675L37.3756 29.4598C37.9825 28.7605 39.0441 29.6819 38.4371 30.3816L34.0982 35.3791L33.5682 35.6217ZM44.9697 50.6949C44.8549 50.6949 44.7438 50.6859 44.6367 50.669V53.8797C44.6355 56.0904 42.8369 57.8887 40.6258 57.8887H4.58484C2.37442 57.8887 0.576172 56.0899 0.576172 53.8795V4.14934C0.576172 1.93891 2.37454 0.140137 4.58484 0.140137H40.6261C42.837 0.140137 44.6359 1.93893 44.6359 4.14934V26.0954C46.8481 29.3955 47.5547 33.6684 46.188 37.5689L48.1488 39.5297C48.4238 39.8045 48.4238 40.25 48.1488 40.5243L46.868 41.805C47.2387 42.103 47.6548 42.4373 47.9977 42.7537C49.7611 41.1089 52.3498 43.4574 51.1228 45.3193L59.0702 51.6626C62.1917 54.1538 60.1911 59.8603 55.6304 59.8603C54.3062 59.8603 53.1509 59.3257 52.3765 58.3559L46.0271 50.4003C45.7118 50.5922 45.3488 50.6949 44.9697 50.6949ZM43.2294 49.7097C42.8568 49.0848 42.8113 48.2699 43.2294 47.5966V46.9541L42.532 46.1413L42.4594 46.2138C41.921 46.7561 41.5679 47.1513 41.2868 47.3865L41.2403 47.433C41.1368 47.5365 41.005 47.6045 40.8634 47.6292C40.5938 47.6842 40.3236 47.5221 39.9036 47.1206C39.3669 46.6482 38.7265 45.9516 38.2583 45.4577C37.7355 45.6394 37.2 45.7868 36.6545 45.8997C35.131 46.221 33.6119 46.2537 32.1535 46.0357C30.2218 45.7659 28.4873 45.0868 26.9985 44.1081H15.6591C14.7335 44.1081 14.7335 42.7018 15.6591 42.7018H25.2296C24.9283 42.4143 24.6429 42.1119 24.372 41.798L24.3467 41.7693L24.3214 41.7404L24.2962 41.7116C24.0641 41.4441 23.835 41.1577 23.6253 40.8708H15.6602C14.7346 40.8708 14.7346 39.4645 15.6602 39.4645H22.7321C21.8875 37.9203 21.348 36.1701 21.2101 34.2789C21.0845 32.786 21.218 31.2627 21.6383 29.7804H15.6596C14.7339 29.7804 14.7339 28.3742 15.6596 28.3742H22.1273C22.3916 27.7304 22.7061 27.1195 23.0645 26.5437H21.4941C20.5684 26.5437 20.5684 25.1374 21.4941 25.1374H24.0826C24.5668 24.5582 25.0997 24.0264 25.6725 23.5457C25.7672 23.4645 25.8631 23.3847 25.9599 23.3064H15.6591C14.7334 23.3064 14.7334 21.9001 15.6591 21.9001H28.1036C29.7042 21.0668 31.4714 20.5808 33.3102 20.4802C35.9054 20.3092 38.5763 20.9174 40.944 22.4538L41.0732 22.5384L41.1866 22.6153C41.8032 23.0333 42.3769 23.5027 42.9041 24.0153C43.0133 24.1205 43.1217 24.2277 43.2288 24.3378V4.14935C43.2288 2.71431 42.0608 1.54639 40.6257 1.54639H4.58482C3.14978 1.54639 1.98186 2.71431 1.98186 4.14935V53.8795C1.98186 55.3145 3.14922 56.4819 4.58482 56.4819H40.6261C42.0611 56.4819 43.2292 55.3145 43.2292 53.8795L43.2294 49.7097ZM50.1602 46.3494L47.0647 49.4449L53.4763 57.4786C55.1981 59.636 59.3486 58.0322 59.1637 54.7332C59.1189 53.925 58.7741 53.2242 58.1939 52.7608L50.1602 46.3494ZM49.3748 43.6251C49.2048 43.6251 49.0467 43.6901 48.9289 43.8081L48.5191 44.2178L46.7256 46.0115L44.6367 48.1004V49.1832C44.8617 49.3316 45.1694 49.3502 45.4148 49.1044L45.6126 48.9066L49.6091 44.9098L49.82 44.6992C50.2145 44.3052 49.9377 43.6251 49.3748 43.6251ZM34.0286 42.482C25.8831 42.482 21.7842 32.5938 27.5462 26.8318C33.3086 21.0696 43.1959 25.1686 43.1959 33.3141C43.1959 38.3799 39.0954 42.482 34.0286 42.482ZM34.0286 25.5526C27.1318 25.5526 23.6628 33.9248 28.5404 38.8024C33.4161 43.678 41.79 40.2126 41.79 33.3141C41.79 29.0257 38.3175 25.5526 34.0286 25.5526ZM38.1547 43.9943C39.5572 43.4488 40.858 42.6193 41.9291 41.5979C45.7654 37.8685 46.836 31.5687 43.4249 26.7602C43.4023 26.7361 43.3806 26.71 43.3604 26.6816C43.2173 26.4807 43.0701 26.2871 42.9195 26.0997C42.878 26.0489 42.8369 25.998 42.7943 25.9477L42.757 25.903C42.5579 25.6702 42.3461 25.4423 42.1228 25.219C40.0406 23.1367 37.3582 22.0246 34.6344 21.8811C31.8249 21.7683 29.0074 22.6866 26.8035 24.4335C26.5039 24.6779 26.2137 24.9397 25.9344 25.219C25.6158 25.5376 25.3226 25.8669 25.0518 26.2041C25.017 26.2679 24.9722 26.3259 24.9174 26.3756C24.2313 27.2629 23.7042 28.2066 23.3255 29.1805C23.311 29.2934 23.272 29.4025 23.2087 29.496C23.1529 29.6534 23.1007 29.8115 23.0526 29.9701C22.7488 31.0037 22.5827 32.1214 22.5827 33.3144C22.5827 33.6093 22.5935 33.901 22.6148 34.1887C22.8288 36.6919 23.8587 39.0972 25.5256 40.9799C26.1472 41.6647 26.8486 42.2712 27.6113 42.7871C27.6412 42.8036 27.669 42.8221 27.6949 42.8424C29.0899 43.7688 30.6853 44.394 32.3689 44.6451C32.9058 44.7196 33.4592 44.7604 34.0291 44.7604C34.635 44.7604 35.2224 44.7151 35.791 44.6307C36.5793 44.5066 37.3708 44.2967 38.1547 43.9943ZM45.8588 42.8145L44.0033 44.67L43.5395 45.134C43.7822 45.4183 44.0801 45.7848 44.4667 46.2353L46.9758 43.7727L45.8588 42.8145ZM40.743 45.9413L40.9451 45.7392C41.3809 45.2976 41.6967 44.9621 41.9488 44.7355L42.0535 44.6308L45.3246 41.3591L46.6569 40.0274L45.5986 38.9691C45.1071 39.9617 44.4678 40.9174 43.6721 41.8124L43.5637 41.9336L43.5391 41.9608C43.1175 42.4242 42.6622 42.857 42.1779 43.2546L42.103 43.3157L42.0372 43.3687C41.3062 43.9507 40.4986 44.4645 39.6713 44.8693L40.743 45.9413ZM7.73682 22.4354C7.55675 22.4354 7.37696 22.3665 7.23979 22.2292L6.49209 21.4813L5.74426 22.2292C5.60695 22.367 5.4273 22.4354 5.24709 22.4354C4.62783 22.4354 4.30506 21.6798 4.75019 21.2351L5.49803 20.4873L4.75019 19.7394C4.09523 19.085 5.09013 18.0905 5.74426 18.7454L6.49209 19.4932L7.23979 18.7454C7.89475 18.0904 8.88882 19.0854 8.23399 19.7394L7.48616 20.4873L8.23399 21.2351C8.67857 21.6793 8.35732 22.4354 7.73682 22.4354ZM7.73682 37.0955C7.55675 37.0955 7.37696 37.0267 7.23979 36.8894L6.49209 36.1416L5.74426 36.8894C5.60695 37.027 5.4273 37.0955 5.24709 37.0955C4.62742 37.0955 4.3052 36.3391 4.75019 35.8946L5.49761 35.1471L4.75019 34.3997C4.09523 33.7447 5.08985 32.7499 5.74426 33.4049L6.49209 34.1527L7.23979 33.4049C7.89516 32.7497 8.88854 33.7458 8.23399 34.3997L7.48644 35.1471L8.23399 35.8946C8.67871 36.3395 8.35732 37.0955 7.73682 37.0955ZM7.73682 50.7052C7.55675 50.7052 7.37696 50.6364 7.23979 50.4991L6.49209 49.7511L5.74426 50.4991C5.60737 50.6368 5.4273 50.7052 5.24709 50.7052C4.62742 50.7052 4.3052 49.949 4.75019 49.5044L5.49775 48.7566L4.75019 48.0088C4.09467 47.3533 5.09123 46.3595 5.74426 47.0141L6.49209 47.7621L7.23979 47.0141C7.89461 46.3586 8.8884 47.3549 8.23399 48.0088L7.4863 48.7566L8.23399 49.5044C8.67871 49.9492 8.35704 50.7052 7.73682 50.7052ZM15.0621 53.7848H11.7055C11.3174 53.7848 11.0023 53.4694 11.0023 53.0817V36.9647C11.0023 36.5766 11.3174 36.2616 11.7055 36.2616H15.0621C15.9875 36.2616 15.9875 37.6678 15.0621 37.6678H12.4086V52.3781H15.0621C15.9878 52.3781 15.9872 53.7848 15.0621 53.7848ZM15.0621 32.983H11.7055C11.3174 32.983 11.0023 32.6677 11.0023 32.2799V16.163C11.0023 15.7749 11.3174 15.4599 11.7055 15.4599H15.0621C15.9878 15.4599 15.9878 16.8662 15.0621 16.8662H12.4086V31.5765H15.0621C15.9878 31.5765 15.9872 32.983 15.0621 32.983ZM39.1741 50.5818H36.517C35.5913 50.5818 35.5917 49.1756 36.517 49.1756H39.1741C40.0996 49.1756 40.0998 50.5818 39.1741 50.5818ZM33.3402 50.5818H15.6596C14.734 50.5818 14.734 49.1756 15.6596 49.1756H33.3402C34.2658 49.1756 34.2658 50.5818 33.3402 50.5818ZM18.3178 26.5437H15.6601C14.7345 26.5437 14.7345 25.1375 15.6601 25.1375H18.3178C19.2435 25.1375 19.2435 26.5437 18.3178 26.5437ZM26.7274 20.0691H15.6602C14.7345 20.0691 14.7345 18.6629 15.6602 18.6629H26.7274C27.6529 18.6629 27.653 20.0691 26.7274 20.0691ZM38.198 12.7626H7.01362C6.08737 12.7626 5.33387 12.0091 5.33387 11.0828V7.13464C5.33387 6.20839 6.08738 5.45488 7.01362 5.45488L38.1986 5.45502C39.1244 5.45502 39.8778 6.20853 39.8778 7.13478V11.0829C39.8778 12.0092 39.1243 12.7626 38.198 12.7626ZM7.01362 6.86128C6.86524 6.86128 6.74012 6.98627 6.74012 7.13478V11.0829C6.74012 11.2313 6.86497 11.3564 7.01362 11.3564L38.1986 11.3563C38.3467 11.3563 38.4715 11.2313 38.4715 11.0828V7.13464C38.4715 6.98626 38.3467 6.86114 38.1986 6.86114L7.01362 6.86128Z" fill="#12364F"/>
<path id="Vector_2" fill-rule="evenodd" clip-rule="evenodd" d="M7.01373 11.3561L38.1987 11.356C38.3468 11.356 38.4716 11.231 38.4716 11.0825V7.13434C38.4716 6.98596 38.3468 6.86084 38.1987 6.86084L7.01373 6.86098C6.86536 6.86098 6.74023 6.98596 6.74023 7.13448V11.0826C6.74023 11.231 6.86508 11.3561 7.01373 11.3561Z" fill="#12364F"/>
<path id="Vector_3" fill-rule="evenodd" clip-rule="evenodd" d="M7.01417 5.45486L38.1991 5.455C39.1249 5.455 39.8783 6.20851 39.8783 7.13475V11.0829C39.8783 12.0092 39.1248 12.7625 38.1986 12.7625H7.01414C6.08789 12.7625 5.33439 12.009 5.33439 11.0828V7.13461C5.33439 6.20837 6.08792 5.45486 7.01417 5.45486ZM15.6607 18.6629H26.7279C27.6535 18.6629 27.6536 20.0691 26.7279 20.0691H15.6607C14.735 20.0691 14.735 18.6629 15.6607 18.6629ZM15.6596 21.9001H28.1041C29.7047 21.0668 31.472 20.5808 33.3107 20.4802C35.9059 20.3092 38.5768 20.9174 40.9445 22.4538L41.0738 22.5384L41.1871 22.6153C41.8038 23.0333 42.3775 23.5027 42.9047 24.0153C43.0139 24.1205 43.1223 24.2277 43.2294 24.3378V4.14934C43.2294 2.7143 42.0614 1.54639 40.6263 1.54639H4.58538C3.15033 1.54639 1.98242 2.7143 1.98242 4.14934V53.8795C1.98242 55.3145 3.14978 56.4819 4.58538 56.4819H40.6267C42.0617 56.4819 43.2298 55.3145 43.2298 53.8795V49.7096C42.8572 49.0846 42.8116 48.2698 43.2298 47.5964V46.9539L42.5323 46.1412L42.4598 46.2137C41.9214 46.756 41.5683 47.1512 41.2872 47.3863L41.2406 47.4328C41.1371 47.5364 41.0053 47.6043 40.8638 47.6291C40.5941 47.6841 40.324 47.522 39.9039 47.1205C39.3673 46.6481 38.7268 45.9514 38.2586 45.4576C37.7358 45.6393 37.2003 45.7867 36.6548 45.8995C35.1313 46.2209 33.6123 46.2536 32.1538 46.0356C30.2222 45.7658 28.4876 45.0866 26.9988 44.1079H15.6594C14.7338 44.1079 14.7338 42.7017 15.6594 42.7017H25.2299C24.9286 42.4142 24.6432 42.1118 24.3723 41.7979L24.347 41.7692L24.3217 41.7403L24.2965 41.7115C24.0644 41.4439 23.8353 41.1576 23.6256 40.8706H15.6605C14.7349 40.8706 14.7349 39.4644 15.6605 39.4644H22.7324C21.8879 37.9201 21.3483 36.1699 21.2105 34.2788C21.0848 32.7859 21.2184 31.2626 21.6386 29.7803H15.6599C14.7342 29.7803 14.7342 28.3741 15.6599 28.3741H22.1276C22.392 27.7303 22.7064 27.1194 23.0648 26.5436H21.4944C20.5687 26.5436 20.5687 25.1373 21.4944 25.1373H24.0829C24.5671 24.5581 25.1 24.0263 25.6729 23.5456C25.7675 23.4643 25.8635 23.3846 25.9602 23.3063H15.6594C14.7337 23.3063 14.7339 21.9001 15.6596 21.9001ZM15.6607 25.1374H18.3184C19.244 25.1374 19.244 26.5437 18.3184 26.5437H15.6607C14.735 26.5437 14.735 25.1374 15.6607 25.1374ZM15.6607 45.9385H24.7684C25.6937 45.9385 25.6943 47.3448 24.768 47.3448H15.6607C14.7352 47.3448 14.7352 45.9385 15.6607 45.9385ZM7.48672 20.4872L8.23456 21.2351C8.67913 21.6792 8.35788 22.4354 7.73739 22.4354C7.55731 22.4354 7.37752 22.3664 7.24035 22.2291L6.49266 21.4813L5.74482 22.2291C5.60752 22.367 5.42786 22.4354 5.24765 22.4354C4.6284 22.4354 4.30562 21.6798 4.75075 21.2351L5.49859 20.4872L4.75075 19.7394C4.09579 19.085 5.09069 18.0905 5.74482 18.7453L6.49266 19.4932L7.24035 18.7453C7.89531 18.0904 8.88938 19.0854 8.23456 19.7394L7.48672 20.4872ZM11.0029 16.163C11.0029 15.7749 11.3179 15.4599 11.706 15.4599H15.0627C15.9883 15.4599 15.9883 16.8661 15.0627 16.8661H12.4092V31.5764H15.0627C15.9883 31.5764 15.9878 32.983 15.0627 32.983H11.706C11.3179 32.983 11.0029 32.6677 11.0029 32.2798V16.163ZM7.24035 33.4048C7.89572 32.7496 8.8891 33.7458 8.23455 34.3996L7.48699 35.147L8.23455 35.8946C8.67926 36.3394 8.35787 37.0954 7.73738 37.0954C7.55731 37.0954 7.37751 37.0266 7.24035 36.8893L6.49265 36.1415L5.74481 36.8893C5.60751 37.0269 5.42785 37.0954 5.24764 37.0954C4.62798 37.0954 4.30576 36.339 4.75075 35.8946L5.49816 35.147L4.75075 34.3996C4.09579 33.7446 5.09041 32.7499 5.74481 33.4048L6.49265 34.1527L7.24035 33.4048ZM7.24035 47.0141C7.89517 46.3586 8.88896 47.3549 8.23455 48.0087L7.48685 48.7566L8.23455 49.5044C8.67926 49.9491 8.3576 50.7051 7.73738 50.7051C7.55731 50.7051 7.37751 50.6363 7.24035 50.499L6.49265 49.751L5.74481 50.499C5.60792 50.6367 5.42785 50.7051 5.24764 50.7051C4.62798 50.7051 4.30576 49.949 4.75075 49.5044L5.4983 48.7566L4.75075 48.0087C4.09523 47.3532 5.09179 46.3594 5.74481 47.0141L6.49265 47.7621L7.24035 47.0141ZM11.706 36.2615H15.0627C15.9881 36.2615 15.9881 37.6678 15.0627 37.6678H12.4092V52.3781H15.0627C15.9883 52.3781 15.9878 53.7848 15.0627 53.7848H11.706C11.3179 53.7848 11.0029 53.4693 11.0029 53.0816V36.9646C11.0029 36.5765 11.3179 36.2615 11.706 36.2615ZM36.5176 49.1755H39.1747C40.1002 49.1755 40.1004 50.5818 39.1747 50.5818H36.5176C35.5919 50.5818 35.5923 49.1755 36.5176 49.1755ZM15.6602 49.1755H33.3408C34.2663 49.1755 34.2663 50.5818 33.3408 50.5818H15.6602C14.7346 50.5818 14.7346 49.1755 15.6602 49.1755Z" fill="#F9F7F8"/>
<path id="Vector_4" fill-rule="evenodd" clip-rule="evenodd" d="M34.0277 25.5522C27.1309 25.5522 23.6619 33.9245 28.5395 38.8021C33.4152 43.6777 41.7891 40.2123 41.7891 33.3138C41.7891 29.0254 38.3166 25.5522 34.0277 25.5522ZM32.1789 32.3997L33.5481 33.8672L37.3747 29.4595C37.9816 28.7602 39.0432 29.6816 38.4362 30.3813L34.0973 35.3788L33.5673 35.6214C33.0182 35.6214 31.8224 34.0787 31.1512 33.3592C30.5189 32.6815 31.5489 31.724 32.1789 32.3997Z" fill="#F9F7F8"/>
<path id="Vector_5" fill-rule="evenodd" clip-rule="evenodd" d="M27.5456 26.8316C33.3079 21.0694 43.1953 25.1684 43.1953 33.3139C43.1953 38.3797 39.0947 42.4818 34.0279 42.4818C25.8824 42.4818 21.7836 32.5936 27.5456 26.8316ZM34.6337 21.8809C31.8243 21.7681 29.0068 22.6864 26.8029 24.4333C26.5032 24.6777 26.2131 24.9395 25.9338 25.2188C25.6152 25.5374 25.322 25.8667 25.0511 26.2039C25.0164 26.2677 24.9716 26.3257 24.9167 26.3754C24.2306 27.2627 23.7036 28.2064 23.3249 29.1803C23.3103 29.2932 23.2713 29.4023 23.2081 29.4958C23.1523 29.6532 23.1001 29.8113 23.0519 29.9699C22.7481 31.0035 22.582 32.1212 22.582 33.3142C22.582 33.6091 22.5928 33.9008 22.6141 34.1885C22.8281 36.6917 23.858 39.097 25.5249 40.9796C26.1465 41.6645 26.848 42.271 27.6106 42.7869C27.6405 42.8033 27.6684 42.8219 27.6942 42.8422C29.0893 43.7686 30.6846 44.3938 32.3682 44.6449C32.9051 44.7194 33.4585 44.7602 34.0285 44.7602C34.6343 44.7602 35.2217 44.7149 35.7903 44.6305C36.5787 44.5064 37.3701 44.2965 38.1541 43.9941C39.5566 43.4486 40.8574 42.6191 41.9284 41.5976C45.7648 37.8683 46.8354 31.5685 43.4242 26.76C43.4017 26.7359 43.38 26.7098 43.3597 26.6814C43.2166 26.4805 43.0695 26.2869 42.9189 26.0995L42.7936 25.9475L42.7564 25.9028C42.5572 25.67 42.3455 25.442 42.1222 25.2188C40.04 23.1365 37.3575 22.0244 34.6337 21.8809Z" fill="#EE8727"/>
<path id="Vector_6" fill-rule="evenodd" clip-rule="evenodd" d="M45.5992 38.9688C45.1077 39.9613 44.4684 40.917 43.6726 41.812L43.5643 41.9332L43.5396 41.9604C43.118 42.4238 42.6628 42.8566 42.1785 43.2542L42.1036 43.3153L42.0377 43.3683C41.3068 43.9503 40.4992 44.4641 39.6719 44.8689L40.7436 45.9409L40.9457 45.7388C41.3815 45.2972 41.6972 44.9617 41.9494 44.7351L42.0541 44.6305L45.3251 41.3587L46.6575 40.027L45.5992 38.9688Z" fill="#E2E0E1"/>
<path id="Vector_7" fill-rule="evenodd" clip-rule="evenodd" d="M45.8584 42.8145L44.0029 44.67L43.5391 45.1339C43.7818 45.4182 44.0797 45.7848 44.4663 46.2353L46.9754 43.7727L45.8584 42.8145Z" fill="#E2E0E1"/>
<path id="Vector_8" fill-rule="evenodd" clip-rule="evenodd" d="M48.5064 44.2308L46.7256 46.0113L44.6367 48.1002V49.183C44.8618 49.3314 45.1695 49.3501 45.4149 49.1043L45.6127 48.9065L49.6091 44.9096L49.8201 44.6991C50.2145 44.305 49.9377 43.625 49.3748 43.625C49.2048 43.625 49.0468 43.6899 48.929 43.808L48.5064 44.2308Z" fill="#EE8727"/>
<path id="Vector_9" fill-rule="evenodd" clip-rule="evenodd" d="M50.16 46.3491L47.0645 49.4447L53.4761 57.4783C55.1979 59.6358 59.3484 58.032 59.1635 54.733C59.1187 53.9248 58.7739 53.224 58.1937 52.7606L50.16 46.3491Z" fill="#E2E0E1"/>
</g>
</g>
<defs>
<clipPath id="clip0_157_149083">
<rect width="60" height="60" fill="white" transform="translate(0.574219)"/>
</clipPath>
</defs>
</svg>
