<svg width="61" height="60" viewBox="0 0 61 60" fill="none" xmlns="http://www.w3.org/2000/svg">
<g id="Capa_1" clip-path="url(#clip0_157_149063)">
<path id="Rectangle 2156" d="M2 5H46V21.4118L44.0225 37.8235L46 40.5V43.6471V59H2V5Z" fill="white"/>
<g id="Group">
<g id="Group_2">
<path id="Vector" d="M10.9488 23.8899C11.3526 23.8899 11.7279 23.682 11.9422 23.3397L15.2436 18.0637C15.5869 17.5151 15.4204 16.792 14.8719 16.4487C14.3232 16.1053 13.6001 16.2717 13.2568 16.8204L10.9488 20.5089L10.1693 19.2632C9.82592 18.7144 9.1029 18.548 8.55436 18.8914C8.0057 19.2346 7.83918 19.9578 8.18253 20.5063L9.95541 23.3396C10.1696 23.6819 10.545 23.8899 10.9488 23.8899Z" fill="#EE8727"/>
<path id="Vector_2" d="M19.3925 23.8901H32.7794C33.4265 23.8901 33.9513 23.3654 33.9513 22.7182C33.9513 22.071 33.4265 21.5464 32.7794 21.5464H19.3925C18.7453 21.5464 18.2207 22.071 18.2207 22.7182C18.2207 23.3654 18.7453 23.8901 19.3925 23.8901Z" fill="#12364F"/>
<path id="Vector_3" d="M19.3925 19.2026H39.6678C40.3149 19.2026 40.8396 18.6779 40.8396 18.0307C40.8396 17.3835 40.3149 16.8589 39.6678 16.8589H19.3925C18.7453 16.8589 18.2207 17.3835 18.2207 18.0307C18.2207 18.6779 18.7453 19.2026 19.3925 19.2026Z" fill="#12364F"/>
<path id="Vector_4" d="M8.18248 32.6728L9.95536 35.5061C10.1696 35.8484 10.5449 36.0564 10.9487 36.0564C11.3525 36.0564 11.7279 35.8485 11.9421 35.5062L15.2435 30.2302C15.5869 29.6815 15.4204 28.9585 14.8718 28.6152C14.3232 28.2718 13.6 28.4383 13.2568 28.9869L10.9487 32.6754L10.1692 31.4297C9.82587 30.881 9.10284 30.7145 8.5543 31.0579C8.00565 31.4011 7.83925 32.1242 8.18248 32.6728Z" fill="#EE8727"/>
<path id="Vector_5" d="M19.3924 36.0561H19.4932H32.7793H32.8801C33.5272 36.0561 34.052 35.5315 34.052 34.8842C34.052 34.237 33.5272 33.7124 32.8801 33.7124H32.7793H19.4933H19.3925C18.7453 33.7124 18.2207 34.237 18.2207 34.8842C18.2207 35.5315 18.7452 36.0561 19.3924 36.0561Z" fill="#12364F"/>
<path id="Vector_6" d="M19.3925 31.3686H19.4933H39.7685C40.4156 31.3686 40.9404 30.844 40.9404 30.1967C40.9404 29.5495 40.4156 29.0249 39.7685 29.0249H19.4933H19.3925C18.7453 29.0249 18.2207 29.5495 18.2207 30.1967C18.2207 30.844 18.7453 31.3686 19.3925 31.3686Z" fill="#12364F"/>
<path id="Vector_7" d="M8.00391 47.0504C8.00391 47.6976 8.52854 48.2222 9.17575 48.2222H14.4517C15.0989 48.2222 15.6236 47.6976 15.6236 47.0504V41.7744C15.6236 41.1272 15.0989 40.6025 14.4517 40.6025H9.17575C8.52854 40.6025 8.00391 41.1272 8.00391 41.7744V47.0504ZM10.3476 42.9462H13.2799V45.8785H10.3476V42.9462Z" fill="#12364F"/>
<path id="Vector_8" d="M19.3925 48.2226H32.7794C33.4265 48.2226 33.9513 47.698 33.9513 47.0507C33.9513 46.4035 33.4265 45.8789 32.7794 45.8789H19.3925C18.7453 45.8789 18.2207 46.4035 18.2207 47.0507C18.2207 47.698 18.7453 48.2226 19.3925 48.2226Z" fill="#12364F"/>
<path id="Vector_9" d="M19.3925 43.5351H37.9731C38.6201 43.5351 39.1449 43.0105 39.1449 42.3632C39.1449 41.716 38.6201 41.1914 37.9731 41.1914H19.3925C18.7453 41.1914 18.2207 41.716 18.2207 42.3632C18.2207 43.0105 18.7453 43.5351 19.3925 43.5351Z" fill="#12364F"/>
<path id="Vector_10" d="M60.3813 6.79567C59.8787 5.7177 58.9863 4.89998 57.8685 4.49312C55.5612 3.65338 53.0008 4.84737 52.1611 7.15449L48.1432 18.1934V8.20388C48.1432 6.26541 46.5662 4.68835 44.6277 4.68835H40.9409V3.75087C40.9409 1.68316 39.2587 0.000976562 37.191 0.000976562C35.1232 0.000976562 33.4411 1.68316 33.4411 3.75087V4.68835H28.2219V3.75087C28.2219 1.68316 26.5397 0.000976562 24.472 0.000976562C22.4043 0.000976562 20.7221 1.68316 20.7221 3.75087V4.68835H15.503V3.75087C15.503 1.68316 13.8208 0.000976562 11.7531 0.000976562C9.68534 0.000976562 8.00316 1.68316 8.00316 3.75087V4.68835H4.31631C2.37785 4.68835 0.800781 6.26541 0.800781 8.20388V56.4838C0.800781 58.4223 2.37785 59.9993 4.31631 59.9993H19.1987C19.8459 59.9993 20.3706 59.4747 20.3706 58.8275C20.3706 58.1803 19.8459 57.6557 19.1987 57.6557H4.31631C3.67016 57.6557 3.14447 57.13 3.14447 56.4838V8.20388C3.14447 7.55772 3.67016 7.03203 4.31631 7.03203H8.00316V7.96951C8.00316 10.0372 9.68534 11.7194 11.7531 11.7194C13.8208 11.7194 15.503 10.0372 15.503 7.96951V7.03203H20.7221V7.96951C20.7221 10.0372 22.4043 11.7194 24.472 11.7194C26.5397 11.7194 28.2219 10.0372 28.2219 7.96951V7.03203H33.4411V7.96951C33.4411 10.0372 35.1232 11.7194 37.191 11.7194C39.2587 11.7194 40.9409 10.0372 40.9409 7.96951V7.03203H44.6277C45.2739 7.03203 45.7995 7.55772 45.7995 8.20388V24.6325L42.5383 33.5927C42.4817 33.7483 42.4585 33.9142 42.4708 34.0793L43.0572 42.0617C43.091 42.5218 43.3916 42.9193 43.8251 43.0771C43.9558 43.1247 44.0912 43.1479 44.2256 43.1479C44.5367 43.1479 44.8413 43.0239 45.066 42.7929L45.7997 42.0385V48.6577H40.3173C38.3789 48.6577 36.8018 50.2347 36.8018 52.1732V57.6557H29.7453C29.0981 57.6557 28.5735 58.1803 28.5735 58.8275C28.5735 59.4747 29.0981 59.9993 29.7453 59.9993H44.6277C46.5662 59.9993 48.1432 58.4223 48.1432 56.4838V39.6286L50.6461 37.055C50.7615 36.9363 50.8504 36.7944 50.9071 36.6389L60.5298 10.2007C60.9367 9.08299 60.884 7.87365 60.3813 6.79567ZM13.1593 7.96951C13.1593 8.74492 12.5285 9.37572 11.7531 9.37572C10.9777 9.37572 10.3468 8.74492 10.3468 7.96951V3.75087C10.3468 2.97547 10.9777 2.34466 11.7531 2.34466C12.5285 2.34466 13.1593 2.97547 13.1593 3.75087V7.96951ZM25.8782 7.96951C25.8782 8.74492 25.2474 9.37572 24.472 9.37572C23.6966 9.37572 23.0658 8.74492 23.0658 7.96951V3.75087C23.0658 2.97547 23.6966 2.34466 24.472 2.34466C25.2474 2.34466 25.8782 2.97547 25.8782 3.75087V7.96951ZM38.5972 7.96951C38.5972 8.74492 37.9664 9.37572 37.191 9.37572C36.4155 9.37572 35.7847 8.74492 35.7847 7.96951V3.75087C35.7847 2.97547 36.4155 2.34466 37.191 2.34466C37.9664 2.34466 38.5972 2.97547 38.5972 3.75087V7.96951ZM39.1454 52.1732C39.1454 51.527 39.671 51.0013 40.3172 51.0013H44.1424L39.1454 55.9984V52.1732ZM45.7995 56.4838C45.7995 57.13 45.2739 57.6557 44.6277 57.6557H40.8026L45.7995 52.6587V56.4838ZM45.2034 39.2898L44.9408 35.7143L47.703 36.7196L45.2034 39.2898ZM49.1056 34.736L45.1413 33.2932L53.2104 11.1236L57.1746 12.5664L49.1056 34.736ZM58.3276 9.39904L57.9763 10.3642L54.0121 8.9214L54.3633 7.95627C54.7612 6.86329 55.974 6.29787 57.0668 6.6956C57.5964 6.88837 58.0191 7.27566 58.2571 7.78635C58.4953 8.2968 58.5203 8.8696 58.3276 9.39904Z" fill="#12364F"/>
<path id="Vector_11" d="M24.4727 59.9995C25.1199 59.9995 25.6445 59.4748 25.6445 58.8276C25.6445 58.1804 25.1199 57.6558 24.4727 57.6558C23.8254 57.6558 23.3008 58.1804 23.3008 58.8276C23.3008 59.4748 23.8254 59.9995 24.4727 59.9995Z" fill="#12364F"/>
</g>
</g>
</g>
<defs>
<clipPath id="clip0_157_149063">
<rect width="60" height="60" fill="white" transform="translate(0.800781)"/>
</clipPath>
</defs>
</svg>
