<svg width="61" height="60" viewBox="0 0 61 60" fill="none" xmlns="http://www.w3.org/2000/svg">
<g id="Frame" clip-path="url(#clip0_157_149051)">
<g id="Layer_19">
<g id="Group">
<path id="Vector" d="M29.9041 22.9883C25.9176 22.9883 22.6861 26.2199 22.6861 30.2064C22.6861 34.1929 25.9176 37.4244 29.9041 37.4244C33.8906 37.4244 37.1222 34.1929 37.1222 30.2064C37.1222 30.2005 37.1222 30.1945 37.1222 30.1945C37.1163 26.214 33.8847 22.9883 29.9041 22.9883ZM29.9041 36.2332V36.2391C26.5722 36.2391 23.8654 33.5323 23.8654 30.2004C23.8654 26.8627 26.5722 24.1617 29.9041 24.1617C33.2359 24.1617 35.9428 26.8567 35.9428 30.1944C35.9428 33.5265 33.2419 36.2332 29.9041 36.2332ZM29.9041 22.9883C25.9176 22.9883 22.6861 26.2199 22.6861 30.2064C22.6861 34.1929 25.9176 37.4244 29.9041 37.4244C33.8906 37.4244 37.1222 34.1929 37.1222 30.2064C37.1222 30.2005 37.1222 30.1945 37.1222 30.1945C37.1163 26.214 33.8847 22.9883 29.9041 22.9883ZM29.9041 36.2332V36.2391C26.5722 36.2391 23.8654 33.5323 23.8654 30.2004C23.8654 26.8627 26.5722 24.1617 29.9041 24.1617C33.2359 24.1617 35.9428 26.8567 35.9428 30.1944C35.9428 33.5265 33.2419 36.2332 29.9041 36.2332ZM29.9041 22.9883C25.9176 22.9883 22.6861 26.2199 22.6861 30.2064C22.6861 34.1929 25.9176 37.4244 29.9041 37.4244C33.8906 37.4244 37.1222 34.1929 37.1222 30.2064C37.1222 30.2005 37.1222 30.1945 37.1222 30.1945C37.1163 26.214 33.8847 22.9883 29.9041 22.9883ZM29.9041 36.2332V36.2391C26.5722 36.2391 23.8654 33.5323 23.8654 30.2004C23.8654 26.8627 26.5722 24.1617 29.9041 24.1617C33.2359 24.1617 35.9428 26.8567 35.9428 30.1944C35.9428 33.5265 33.2419 36.2332 29.9041 36.2332ZM29.9041 22.9883C25.9176 22.9883 22.6861 26.2199 22.6861 30.2064C22.6861 34.1929 25.9176 37.4244 29.9041 37.4244C33.8906 37.4244 37.1222 34.1929 37.1222 30.2064C37.1222 30.2005 37.1222 30.1945 37.1222 30.1945C37.1163 26.214 33.8847 22.9883 29.9041 22.9883ZM29.9041 36.2332V36.2391C26.5722 36.2391 23.8654 33.5323 23.8654 30.2004C23.8654 26.8627 26.5722 24.1617 29.9041 24.1617C33.2359 24.1617 35.9428 26.8567 35.9428 30.1944C35.9428 33.5265 33.2419 36.2332 29.9041 36.2332ZM29.9041 22.9883C25.9176 22.9883 22.6861 26.2199 22.6861 30.2064C22.6861 34.1929 25.9176 37.4244 29.9041 37.4244C33.8906 37.4244 37.1222 34.1929 37.1222 30.2064C37.1222 30.2005 37.1222 30.1945 37.1222 30.1945C37.1163 26.214 33.8847 22.9883 29.9041 22.9883ZM29.9041 36.2332V36.2391C26.5722 36.2391 23.8654 33.5323 23.8654 30.2004C23.8654 26.8627 26.5722 24.1617 29.9041 24.1617C33.2359 24.1617 35.9428 26.8567 35.9428 30.1944C35.9428 33.5265 33.2419 36.2332 29.9041 36.2332ZM43.6622 26.7625H42.5653C42.2409 25.5654 41.7515 24.4273 41.1088 23.3716L41.8636 22.611C42.5771 21.9033 42.5771 20.7593 41.8754 20.0457C41.8696 20.0457 41.8696 20.0399 41.8636 20.0399L39.9234 18.0997C39.2158 17.3862 38.0658 17.3862 37.3522 18.0997L36.5385 18.9135C35.4828 18.2884 34.3388 17.8166 33.1476 17.5218V16.4367C33.1476 15.4283 32.3338 14.6204 31.3312 14.6204H28.5832C27.5806 14.6204 26.7668 15.4283 26.7668 16.4367V17.5218C25.6228 17.8166 24.5258 18.2648 23.4997 18.8604L22.5739 17.8932C21.8545 17.2032 20.7222 17.2032 20.0028 17.8932L18.0331 19.8334C17.3256 20.5411 17.3256 21.6911 18.0331 22.4045L18.8883 23.2596C18.2101 24.3388 17.6912 25.5241 17.361 26.7625H16.1461C15.1435 26.7507 14.3239 27.5586 14.318 28.5611V31.3268C14.318 32.3293 15.1317 33.1431 16.1342 33.1431H17.2194C17.5142 34.4169 18.0037 35.6435 18.6642 36.7758L17.8976 37.5541C17.19 38.2559 17.184 39.4 17.8857 40.1135C17.8916 40.1135 17.8976 40.1194 17.8976 40.1254L19.8377 42.0714C20.5513 42.7791 21.7012 42.7791 22.4089 42.0714L23.1637 41.3401C24.2901 42.0301 25.5109 42.5432 26.7905 42.8674V43.9525C26.7905 44.955 27.6042 45.7687 28.6069 45.7746H31.3549C32.3574 45.7687 33.1713 44.9549 33.1713 43.9525V42.8733C34.4922 42.5372 35.7483 41.9946 36.8982 41.2693L37.4879 41.859C38.2073 42.543 39.3396 42.543 40.059 41.859L41.9992 39.9189C42.7127 39.2112 42.7127 38.0672 42.011 37.3536C42.0051 37.3536 42.0051 37.3478 41.9992 37.3478L41.3092 36.6578C41.9401 35.5491 42.406 34.3579 42.689 33.1195H43.6621C44.6646 33.1195 45.4842 32.3058 45.4842 31.3032V28.5787C45.4843 27.5704 44.6647 26.7625 43.6622 26.7625ZM43.6622 31.9637H41.728L41.6335 32.4414C41.3623 33.8566 40.8316 35.213 40.065 36.4396L39.8232 36.8346L41.1678 38.1791C41.4214 38.4268 41.4214 38.8337 41.1678 39.0873L39.2277 41.0275C38.9741 41.2634 38.579 41.2634 38.3255 41.0275L37.0516 39.7537L36.6447 40.0309C35.371 40.886 33.938 41.4875 32.4343 41.8001L31.9684 41.9004V43.9289C31.9684 44.2768 31.6854 44.5658 31.3315 44.5717H28.5834C28.2355 44.5717 27.9465 44.2827 27.9465 43.9348C27.9465 43.9289 27.9465 43.9289 27.9465 43.9289V41.9239L27.4806 41.8237C26.0062 41.5112 24.6088 40.9274 23.3526 40.0958L22.9516 39.8305L21.5716 41.2341C21.324 41.4758 20.923 41.4758 20.6694 41.2341L18.7292 39.2939C18.6112 39.17 18.5405 39.0049 18.5405 38.8398C18.5405 38.6687 18.6112 38.5096 18.7292 38.3916L20.174 36.9468L19.9205 36.5517C19.1244 35.2897 18.5701 33.8862 18.2928 32.4238L18.1985 31.9461H16.1463C15.7984 31.952 15.5094 31.6748 15.4977 31.3269V28.5789C15.4977 28.2251 15.7867 27.9361 16.1346 27.9361C16.1405 27.9361 16.1405 27.9361 16.1464 27.942H18.2872L18.3933 27.4879C18.7235 26.0666 19.3073 24.7162 20.1269 23.5132L20.4041 23.1063L18.8651 21.5672C18.7471 21.4433 18.6763 21.2842 18.6763 21.1189C18.6821 20.948 18.7471 20.7829 18.8651 20.6648L20.8052 18.7247C21.0588 18.4829 21.4538 18.4829 21.7074 18.7247L23.3174 20.3346L23.7125 20.0929C24.8683 19.3676 26.1421 18.8544 27.4748 18.5714L27.9408 18.4712V16.4367C27.9408 16.0829 28.2297 15.7998 28.5777 15.7998H31.3257C31.6796 15.7998 31.9626 16.0828 31.9626 16.4367V18.4654L32.4286 18.5657C33.8085 18.8546 35.1235 19.3971 36.3089 20.1579L36.704 20.4115L38.1842 18.9313C38.4378 18.6836 38.8387 18.6836 39.0865 18.9313L41.0266 20.8773C41.2744 21.1249 41.2744 21.5259 41.0266 21.7795L39.5877 23.2126L39.859 23.6195C40.6433 24.793 41.2094 26.1081 41.522 27.488L41.628 27.9421H43.6567C44.0104 27.9362 44.2994 28.2192 44.2994 28.5731V28.579L44.3053 31.327C44.3049 31.6747 44.016 31.9637 43.6622 31.9637ZM29.9041 22.9883C25.9176 22.9883 22.6861 26.2199 22.6861 30.2064C22.6861 34.1929 25.9176 37.4244 29.9041 37.4244C33.8906 37.4244 37.1222 34.1929 37.1222 30.2064C37.1222 30.2005 37.1222 30.1945 37.1222 30.1945C37.1163 26.214 33.8847 22.9883 29.9041 22.9883ZM29.9041 36.2332V36.2391C26.5722 36.2391 23.8654 33.5323 23.8654 30.2004C23.8654 26.8627 26.5722 24.1617 29.9041 24.1617C33.2359 24.1617 35.9428 26.8567 35.9428 30.1944C35.9428 33.5265 33.2419 36.2332 29.9041 36.2332ZM29.9041 22.9883C25.9176 22.9883 22.6861 26.2199 22.6861 30.2064C22.6861 34.1929 25.9176 37.4244 29.9041 37.4244C33.8906 37.4244 37.1222 34.1929 37.1222 30.2064C37.1222 30.2005 37.1222 30.1945 37.1222 30.1945C37.1163 26.214 33.8847 22.9883 29.9041 22.9883ZM29.9041 36.2332V36.2391C26.5722 36.2391 23.8654 33.5323 23.8654 30.2004C23.8654 26.8627 26.5722 24.1617 29.9041 24.1617C33.2359 24.1617 35.9428 26.8567 35.9428 30.1944C35.9428 33.5265 33.2419 36.2332 29.9041 36.2332ZM29.9041 22.9883C25.9176 22.9883 22.6861 26.2199 22.6861 30.2064C22.6861 34.1929 25.9176 37.4244 29.9041 37.4244C33.8906 37.4244 37.1222 34.1929 37.1222 30.2064C37.1222 30.2005 37.1222 30.1945 37.1222 30.1945C37.1163 26.214 33.8847 22.9883 29.9041 22.9883ZM29.9041 36.2332V36.2391C26.5722 36.2391 23.8654 33.5323 23.8654 30.2004C23.8654 26.8627 26.5722 24.1617 29.9041 24.1617C33.2359 24.1617 35.9428 26.8567 35.9428 30.1944C35.9428 33.5265 33.2419 36.2332 29.9041 36.2332ZM29.9041 22.9883C25.9176 22.9883 22.6861 26.2199 22.6861 30.2064C22.6861 34.1929 25.9176 37.4244 29.9041 37.4244C33.8906 37.4244 37.1222 34.1929 37.1222 30.2064C37.1222 30.2005 37.1222 30.1945 37.1222 30.1945C37.1163 26.214 33.8847 22.9883 29.9041 22.9883ZM29.9041 36.2332V36.2391C26.5722 36.2391 23.8654 33.5323 23.8654 30.2004C23.8654 26.8627 26.5722 24.1617 29.9041 24.1617C33.2359 24.1617 35.9428 26.8567 35.9428 30.1944C35.9428 33.5265 33.2419 36.2332 29.9041 36.2332ZM29.9041 3.90527C29.8687 3.89941 29.8333 3.89941 29.798 3.90527L31.6969 2.1007C31.8914 1.83539 31.8384 1.46977 31.5788 1.27512C31.3725 1.12184 31.0953 1.11586 30.8888 1.26328L27.2917 4.6718L31.2251 7.65574C31.3311 7.72652 31.455 7.76777 31.5848 7.77363C31.9091 7.76777 32.1745 7.50234 32.1745 7.17809C32.1745 6.99527 32.086 6.82418 31.9445 6.71812L29.739 5.04926C29.7921 5.06695 29.851 5.07879 29.9041 5.08465C43.7624 5.10234 54.9904 16.3364 55.0081 30.1945C55.0081 30.5189 55.2736 30.7842 55.5978 30.7842C55.9221 30.7842 56.1875 30.5188 56.1875 30.1945C56.1699 15.6818 44.417 3.92297 29.9041 3.90527ZM29.1198 4.5716L29.344 4.35926C29.3381 4.40051 29.3381 4.44773 29.344 4.49484C29.3498 4.60102 29.3851 4.70719 29.4442 4.80152L29.1198 4.5716ZM28.1292 52.6508C27.8815 52.4385 27.51 52.4739 27.2976 52.7216C27.2976 52.7275 27.2976 52.7275 27.2918 52.7334C27.0913 52.9811 27.1267 53.3527 27.3744 53.559L29.4915 55.3282C15.7864 55.0863 4.79424 43.9054 4.79424 30.1946C4.79424 29.8644 4.52893 29.605 4.20455 29.605C3.88018 29.605 3.61487 29.8644 3.61487 30.1946C3.63256 44.507 15.0906 56.1832 29.4029 56.4722L27.4746 58.1883C27.2328 58.4006 27.2093 58.7721 27.4216 59.0197C27.5395 59.1495 27.7046 59.2202 27.8816 59.2202C28.029 59.2144 28.1706 59.1613 28.2767 59.067L31.9684 55.7823L28.1292 52.6508ZM51.2989 41.6704C50.9746 41.6704 50.7092 41.9298 50.7092 42.26V42.95C50.7092 43.2744 50.9746 43.5397 51.2989 43.5397C51.6232 43.5397 51.8886 43.2743 51.8886 42.95V42.26C51.8886 41.9299 51.6232 41.6704 51.2989 41.6704ZM47.1827 44.0823L46.7816 43.528C46.5871 43.2627 46.2155 43.2096 45.956 43.4101C45.7024 43.5988 45.6435 43.9527 45.8263 44.218L46.2273 44.7723C46.3393 44.9256 46.5163 45.0141 46.7049 45.0199C46.8288 45.0141 46.9526 44.9787 47.0529 44.9079C47.3184 44.7132 47.3773 44.3476 47.1827 44.0823ZM56.7714 57.2918L56.3703 56.7375C56.1699 56.478 55.7983 56.4368 55.5447 56.6373C55.303 56.826 55.244 57.168 55.415 57.4275L55.8219 57.9878C56.0165 58.2472 56.3821 58.3062 56.6416 58.1175C56.9071 57.9229 56.966 57.5572 56.7714 57.2918ZM44.0513 47.7562V47.7858L43.3967 47.5736C43.0842 47.4792 42.7599 47.662 42.6713 47.9746C42.583 48.2753 42.7421 48.582 43.0311 48.694L43.6856 48.9357C43.7447 48.9416 43.8095 48.9416 43.8684 48.9357C44.1928 48.9828 44.4995 48.7588 44.5526 48.4344C44.5998 48.11 44.3757 47.8034 44.0513 47.7562ZM59.5667 52.7687V52.8277L58.9121 52.6153C58.5996 52.521 58.2752 52.7038 58.1867 53.0163C58.0983 53.317 58.2575 53.6237 58.5465 53.7357L59.2011 53.9481C59.2602 53.9539 59.325 53.9539 59.3839 53.9481C59.7083 53.9952 60.0149 53.7711 60.068 53.4468C60.1151 53.1226 59.891 52.8159 59.5667 52.7687ZM44.4582 53.0637C44.3699 52.7511 44.0395 52.5683 43.727 52.6568C43.7151 52.6627 43.7034 52.6685 43.6856 52.6745V52.6155L43.0311 52.8279C42.7067 52.8751 42.4827 53.1817 42.5358 53.5061C42.583 53.8304 42.8897 54.0545 43.2139 54.0073C43.2729 54.0131 43.3378 54.0131 43.3967 54.0073L44.0513 53.7949C44.3639 53.7005 44.5467 53.3761 44.4582 53.0637ZM59.9736 48.0216C59.8851 47.709 59.5549 47.5262 59.2424 47.6147C59.2305 47.6205 59.2188 47.6265 59.201 47.6324V47.5734L58.5464 47.7857C58.2221 47.8329 57.998 48.1395 58.051 48.4638C58.0981 48.7882 58.4048 49.0123 58.7292 48.9652C58.7883 48.977 58.8531 48.977 58.912 48.9652L59.5666 48.7528C59.8792 48.6585 60.062 48.3341 59.9736 48.0216ZM47.0588 56.6019C47.053 56.6019 47.053 56.6019 47.053 56.6019C46.7876 56.4073 46.4221 56.4662 46.2333 56.7316C46.2274 56.7316 46.2274 56.7316 46.2274 56.7375L45.8264 57.2918C45.6376 57.5513 45.6908 57.9227 45.9561 58.1174C46.2214 58.3061 46.593 58.2471 46.7817 57.9877L47.1828 57.4274C47.3772 57.1621 47.3184 56.7906 47.0588 56.6019ZM56.565 43.41C56.3232 43.2684 56.0165 43.3157 55.8279 43.5279L55.421 44.0822C55.2322 44.3416 55.2854 44.7132 55.5507 44.9019V44.9078C55.6509 44.9786 55.7689 45.0198 55.8927 45.0316C56.0813 45.0258 56.2642 44.9373 56.3703 44.7839L56.7773 44.2178C56.9424 43.9349 56.8481 43.5751 56.565 43.41ZM10.3316 0.703125C10.0073 0.703125 9.7419 0.962578 9.7419 1.29281V1.98281C9.7419 2.30719 10.0073 2.5725 10.3316 2.5725C10.656 2.5725 10.9213 2.30707 10.9213 1.98281V1.29281C10.9214 0.962578 10.656 0.703125 10.3316 0.703125ZM6.19194 3.12691L5.79092 2.57262C5.53733 2.36625 5.16584 2.41336 4.96533 2.67281C4.83561 2.83793 4.80022 3.06199 4.88272 3.2625L5.28971 3.85219C5.40174 3.98191 5.56686 4.06453 5.74381 4.06453C5.8617 4.05867 5.96787 4.0173 6.06221 3.9525C6.32752 3.75785 6.38647 3.39223 6.19194 3.12691ZM15.8041 16.3246L15.4031 15.7703C15.2144 15.505 14.843 15.4459 14.5835 15.6347C14.5776 15.6347 14.5776 15.6347 14.5776 15.6405C14.3122 15.8292 14.2533 16.1948 14.4479 16.4603V16.4661L14.8548 17.0204C14.9668 17.1679 15.1438 17.2622 15.3324 17.2622C15.4563 17.2563 15.5742 17.2209 15.6744 17.1502C15.9398 16.9556 15.9988 16.59 15.8041 16.3246ZM3.11354 6.81844L2.45893 6.60609C2.14639 6.5059 1.81604 6.67688 1.71584 6.98941C1.61565 7.29609 1.78662 7.63219 2.09916 7.7325L2.74779 7.94484C2.80686 7.9507 2.87166 7.9507 2.93061 7.94484C3.25487 7.90945 3.49076 7.62047 3.46123 7.29609C3.44377 7.08375 3.30819 6.90105 3.11354 6.81844ZM18.5994 11.8605L17.9448 11.6482C17.6381 11.542 17.3019 11.7131 17.2017 12.0257C17.1015 12.3323 17.2725 12.6626 17.585 12.7628V12.7686L18.2337 12.981C18.2926 12.9868 18.3575 12.9868 18.4165 12.981C18.6699 12.9751 18.9 12.8159 18.9766 12.5741C19.0594 12.2733 18.8942 11.9607 18.5994 11.8605ZM3.52053 12.0374C3.43205 11.7248 3.10182 11.542 2.78928 11.6305C2.77744 11.6364 2.76572 11.6422 2.74791 11.6482H2.71838L2.06975 11.8605C1.76307 11.9549 1.58612 12.2851 1.68631 12.5977V12.6035C1.76893 12.8513 2.01069 13.0222 2.276 13.0104C2.33506 13.0222 2.39987 13.0222 2.45881 13.0104L3.11342 12.7686C3.42608 12.6743 3.60889 12.3499 3.52053 12.0374ZM18.9886 7.01309C18.9827 7.00723 18.9827 6.99539 18.9767 6.98953C18.8824 6.67699 18.5463 6.50602 18.2396 6.60035C18.2338 6.60035 18.2338 6.60035 18.2338 6.60621L17.5851 6.81855C17.2785 6.91887 17.1075 7.2491 17.2077 7.56164C17.2903 7.8034 17.5144 7.96266 17.7678 7.96852C17.8269 7.97438 17.8857 7.97438 17.9448 7.96852L18.5994 7.75617C18.9119 7.65586 19.0829 7.32562 18.9886 7.01309ZM6.07393 15.6464C6.07393 15.6405 6.06807 15.6405 6.06209 15.6405C5.80264 15.4636 5.45471 15.5225 5.26604 15.7703L4.88272 16.3246C4.69404 16.584 4.74713 16.9556 5.01256 17.1443V17.1502C5.11276 17.2209 5.23662 17.2622 5.36037 17.2622C5.54916 17.2622 5.72612 17.1679 5.83803 17.0204L6.23905 16.4661C6.42186 16.1948 6.34522 15.8234 6.07393 15.6464ZM15.5919 2.42508C15.3501 2.28352 15.0435 2.33074 14.8548 2.54297L14.4479 3.09727C14.2414 3.345 14.2768 3.71648 14.5246 3.92285C14.6307 4.01719 14.7663 4.06441 14.9079 4.06441C15.1024 4.07027 15.2912 3.97594 15.4032 3.82266L15.8042 3.23297C15.9692 2.94996 15.8749 2.5902 15.5919 2.42508ZM16.4646 8.9768C16.1108 6.16383 13.8758 3.96422 11.057 3.66937C7.68373 3.23883 4.59959 5.62137 4.16916 8.99449C3.82123 11.7485 5.3544 14.3962 7.91975 15.4636V18.3295H12.8026V15.3928C15.3206 14.3078 16.8126 11.6895 16.4646 8.9768ZM12.0181 14.4316L11.6231 14.5732V17.1503H9.09912V14.6027L8.70408 14.4612C6.11518 13.5353 4.75885 10.6929 5.67877 8.1041C6.45725 5.92219 8.62733 4.56586 10.9272 4.82531C13.2153 5.04938 15.0376 6.83625 15.2971 9.12434C15.5919 11.4418 14.2237 13.6532 12.0181 14.4316ZM56.966 48.281C56.0873 46.2584 54.1944 44.8607 52.0006 44.6189C48.6334 44.2474 45.5963 46.6711 45.219 50.0442C44.9123 52.7333 46.3984 55.3044 48.8811 56.3836V59.2969H53.7698V56.3837C56.8894 55.0274 58.3165 51.4007 56.966 48.281ZM52.9854 55.4224L52.5903 55.558V58.1174H50.0605V55.5639L49.7007 55.4223C47.1119 54.5082 45.7496 51.6717 46.6578 49.0829C46.9408 48.2868 47.4126 47.5792 48.0378 47.0248C50.0782 45.1849 53.2214 45.35 55.0612 47.3904C55.7335 48.1393 56.1641 49.077 56.2938 50.0795C56.6063 52.4208 55.2205 54.6558 52.9854 55.4224Z" fill="#12364F"/>
<path id="Vector_2" d="M12.0181 14.4315L11.6231 14.573V17.1501H9.09908V14.6025L8.70404 14.461C6.11514 13.5351 4.75881 10.6927 5.67873 8.10391C6.45721 5.922 8.62728 4.56567 10.9272 4.82512C13.2153 5.04919 15.0376 6.83606 15.297 9.12415C15.5919 11.4416 14.2237 13.653 12.0181 14.4315Z" fill="#EE8727"/>
<path id="Vector_3" d="M52.9859 55.4223L52.5909 55.5579V58.1173H50.0611V55.5638L49.7013 55.4222C47.1125 54.5081 45.7502 51.6716 46.6584 49.0828C46.9414 48.2867 47.4132 47.5791 48.0384 47.0247C50.0788 45.1848 53.222 45.3499 55.0618 47.3903C55.7341 48.1392 56.1647 49.0769 56.2944 50.0794C56.6069 52.4207 55.2211 54.6557 52.9859 55.4223Z" fill="#EE8727"/>
<path id="Vector_4" d="M44.2998 28.579C44.2998 28.5731 44.2998 28.5731 44.2998 28.5731C44.2998 28.2193 44.0108 27.9362 43.657 27.9421H41.6284L41.5223 27.488C41.2098 26.1081 40.6437 24.793 39.8593 23.6195L39.588 23.2126L41.027 21.7795C41.2747 21.5259 41.2747 21.1249 41.027 20.8773L39.0868 18.9313C38.8391 18.6836 38.4382 18.6836 38.1846 18.9313L36.7044 20.4115L36.3093 20.1579C35.1239 19.3972 33.8088 18.8546 32.4289 18.5657L31.963 18.4654V16.4367C31.963 16.0829 31.68 15.7998 31.3261 15.7998H28.578C28.2301 15.7998 27.9411 16.0828 27.9411 16.4367V18.4712L27.4752 18.5714C26.1424 18.8545 24.8687 19.3676 23.7129 20.0929L23.3177 20.3346L21.7078 18.7247C21.4542 18.4829 21.0592 18.4829 20.8056 18.7247L18.8654 20.6648C18.7474 20.7827 18.6826 20.9479 18.6766 21.1189C18.6766 21.2841 18.7474 21.4433 18.8654 21.5672L20.4045 23.1063L20.1273 23.5132C19.3077 24.7162 18.7239 26.0667 18.3936 27.4879L18.2876 27.942H16.1468C16.1409 27.9361 16.1409 27.9361 16.135 27.9361C15.787 27.9361 15.498 28.2251 15.498 28.5789V31.3269C15.5099 31.6748 15.7988 31.952 16.1467 31.9461H18.1989L18.2932 32.4238C18.5705 33.8863 19.1248 35.2897 19.9208 36.5517L20.1744 36.9468L18.7296 38.3916C18.6116 38.5096 18.5408 38.6687 18.5408 38.8398C18.5408 39.0049 18.6116 39.17 18.7296 39.2939L20.6698 41.2341C20.9234 41.4758 21.3244 41.4758 21.572 41.2341L22.952 39.8305L23.353 40.0958C24.6091 40.9274 26.0067 41.5111 27.4809 41.8238L27.9469 41.9239V43.9289V43.9348C27.9469 44.2827 28.2359 44.5717 28.5838 44.5717H31.3318C31.6857 44.5658 31.9688 44.2768 31.9688 43.9289V41.9004L32.4347 41.8001C33.9384 41.4875 35.3714 40.886 36.6451 40.0309L37.052 39.7538L38.3258 41.0275C38.5794 41.2634 38.9745 41.2634 39.228 41.0275L41.1682 39.0873C41.4218 38.8337 41.4218 38.4268 41.1682 38.1791L39.8236 36.8346L40.0654 36.4396C40.832 35.213 41.3627 33.8566 41.6339 32.4414L41.7284 31.9637H43.6625C44.0163 31.9637 44.3053 31.6747 44.3053 31.3268L44.2998 28.579ZM37.1231 30.2066C37.1231 34.1931 33.8916 37.4247 29.9051 37.4247C25.9186 37.4247 22.687 34.1931 22.687 30.2066C22.687 26.2201 25.9186 22.9886 29.9051 22.9886C33.8856 22.9886 37.1173 26.2143 37.1231 30.1948V30.2066Z" fill="white"/>
</g>
</g>
</g>
<defs>
<clipPath id="clip0_157_149051">
<rect width="60" height="60" fill="white" transform="translate(0.867188)"/>
</clipPath>
</defs>
</svg>
