<svg width="60" height="60" viewBox="0 0 60 60" fill="none" xmlns="http://www.w3.org/2000/svg">
<g id="deal_7569508 1" clip-path="url(#clip0_157_149033)">
<path id="Rectangle 2157" d="M7.30469 26.5L13.8047 29L14.8047 31.5L18.3047 34L21.3047 33L27.3047 34L32.8047 32.5L38.3047 33.5L43.8047 33L46.8047 29L52.8047 26.5L58.8047 43.5L52.3047 46L49.8047 45L41.8047 51.5L32.3047 58.5L28.3047 58L23.8047 58.5L14.8047 49.5V47L8.30469 44.5L6.30469 46L1.30469 44L7.30469 26.5Z" fill="white"/>
<circle id="Ellipse 673" cx="29.8047" cy="14" r="8" fill="white"/>
<path id="Vector" d="M59.9415 43.2668L53.379 26.12C53.2971 25.9061 53.1348 25.7326 52.9269 25.6365C52.719 25.5404 52.4817 25.5293 52.2657 25.6055L45.3516 28.0723C45.2406 28.1121 45.1387 28.1739 45.0519 28.2538C44.9652 28.3337 44.8954 28.4303 44.8466 28.5377C44.7979 28.6452 44.7712 28.7613 44.7682 28.8792C44.7651 28.9971 44.7858 29.1145 44.829 29.2243L45.4302 30.7477L40.7122 32.9883L32.9684 31.534C32.2143 31.393 31.4391 31.4092 30.6914 31.5813C29.9438 31.7535 29.2396 32.0781 28.6231 32.5348L27.2391 33.5614L26.3227 32.9016C25.631 32.4063 24.8356 32.075 23.9969 31.9329C23.1581 31.7908 22.298 31.8415 21.4817 32.0813L18.5098 32.9661L14.6169 30.6387L15.1759 29.2254C15.219 29.1157 15.2397 28.9983 15.2367 28.8804C15.2336 28.7625 15.207 28.6463 15.1582 28.5389C15.1095 28.4315 15.0397 28.3349 14.9529 28.255C14.8662 28.175 14.7642 28.1133 14.6532 28.0735L7.73445 25.6055C7.51814 25.5286 7.28031 25.5393 7.07183 25.6355C6.86334 25.7316 6.70075 25.9055 6.61883 26.12L0.0586696 43.2668C-0.0226704 43.478 -0.0193205 43.7124 0.0680201 43.9212C0.155361 44.1299 0.319943 44.2968 0.52742 44.3872L7.08992 47.2149C7.19802 47.2616 7.31441 47.2861 7.43217 47.2869C7.54993 47.2878 7.66665 47.265 7.77541 47.2198C7.88418 47.1747 7.98276 47.1081 8.0653 47.0241C8.14785 46.9402 8.21268 46.8404 8.25593 46.7309L8.91687 45.0586L14.3567 48.1243C13.9901 48.6565 13.8213 49.3002 13.8795 49.9438C13.9378 50.5874 14.2193 51.1903 14.6755 51.6481C14.932 51.9048 15.2368 52.1083 15.5722 52.2468C15.9077 52.3854 16.2672 52.4563 16.6302 52.4555H16.6993C16.7608 53.1431 17.0777 53.7827 17.5875 54.2482C18.0972 54.7137 18.7629 54.9714 19.4532 54.9704H19.5247C19.5804 55.6164 19.8626 56.222 20.3216 56.6801C20.5781 56.9368 20.8829 57.1403 21.2183 57.2789C21.5538 57.4174 21.9133 57.4884 22.2762 57.4876H22.3454C22.3919 58.0113 22.5868 58.511 22.9074 58.9278C23.228 59.3446 23.6608 59.6613 24.1551 59.8407C24.6494 60.0201 25.1846 60.0548 25.6978 59.9406C26.2111 59.8264 26.6812 59.5682 27.0528 59.1961L28.0969 58.1532L29.5102 59.2079C30.109 59.6541 30.8487 59.869 31.5934 59.813C32.338 59.757 33.0373 59.4339 33.5626 58.9032L33.6622 58.8024C34.1059 58.3495 34.4003 57.7717 34.5059 57.1465C35.0347 57.2958 35.5936 57.3017 36.1254 57.1635C36.6572 57.0253 37.1426 56.7481 37.5317 56.3602L37.6044 56.2876C38.0975 55.7954 38.409 55.1505 38.488 54.4583C39.0208 54.617 39.5867 54.6283 40.1255 54.4911C40.6642 54.3539 41.1557 54.0732 41.5477 53.679L41.597 53.6297C42.0777 53.1533 42.3861 52.5303 42.4735 51.859C42.9479 51.9722 43.4424 51.9714 43.9164 51.8568C44.3905 51.7421 44.8306 51.5169 45.2009 51.1994C45.5711 50.882 45.861 50.4814 46.0467 50.0304C46.2323 49.5794 46.3086 49.0909 46.2692 48.6047C46.2539 48.4162 46.2213 48.2295 46.172 48.0469L51.2802 45.5461L51.7489 46.7274C51.7919 46.8371 51.8566 46.9371 51.9391 47.0212C52.0216 47.1054 52.1202 47.1721 52.229 47.2172C52.3379 47.2624 52.4547 47.2852 52.5726 47.2842C52.6904 47.2832 52.8069 47.2584 52.9149 47.2114L59.4774 44.3836C59.6832 44.2925 59.8461 44.1258 59.9325 43.9179C60.0188 43.7101 60.0221 43.477 59.9415 43.2668ZM6.95281 45.2426L2.00164 43.1075L7.95125 27.5508L9.41023 28.07L6.59773 36.0645C6.52003 36.2846 6.53293 36.5265 6.63358 36.737C6.73424 36.9475 6.9144 37.1095 7.13445 37.1872C7.3545 37.2649 7.5964 37.252 7.80694 37.1513C8.01748 37.0507 8.17941 36.8705 8.25711 36.6504L11.0626 28.6641L13.2012 29.427L6.95281 45.2426ZM15.9177 50.4047C15.7291 50.2158 15.6232 49.9598 15.6232 49.6928C15.6232 49.4259 15.7291 49.1699 15.9177 48.9809L17.7927 47.1059C17.9337 46.9654 18.1131 46.8698 18.3084 46.8312C18.5036 46.7926 18.706 46.8126 18.8898 46.8888C19.0737 46.965 19.2309 47.094 19.3416 47.2594C19.4523 47.4249 19.5115 47.6194 19.5118 47.8184C19.5122 47.9506 19.4864 48.0816 19.4357 48.2038C19.385 48.3259 19.3105 48.4367 19.2165 48.5297L17.3415 50.4047C17.248 50.4982 17.137 50.5724 17.0149 50.623C16.8927 50.6736 16.7618 50.6997 16.6296 50.6997C16.4973 50.6997 16.3664 50.6736 16.2443 50.623C16.1221 50.5724 16.0111 50.4982 15.9177 50.4047ZM18.7395 52.9184C18.6459 52.8251 18.5716 52.7142 18.521 52.5922C18.4703 52.4701 18.4442 52.3393 18.4442 52.2071C18.4442 52.0749 18.4703 51.944 18.521 51.822C18.5716 51.6999 18.6459 51.5891 18.7395 51.4958L20.4587 49.7766C20.5102 49.7251 20.5595 49.6711 20.6063 49.6161L20.6145 49.6243C20.8046 49.4424 21.0583 49.3422 21.3213 49.3451C21.5844 49.3479 21.8358 49.4536 22.0219 49.6396C22.208 49.8255 22.3139 50.0769 22.317 50.3399C22.32 50.6029 22.22 50.8567 22.0384 51.0469L20.3192 52.7672C20.2665 52.8188 20.2196 52.8739 20.1727 52.929L20.1634 52.9184C20.07 53.0121 19.959 53.0864 19.8368 53.1371C19.7147 53.1878 19.5837 53.2138 19.4514 53.2138C19.3192 53.2138 19.1882 53.1878 19.0661 53.1371C18.9439 53.0864 18.8329 53.0121 18.7395 52.9184ZM21.5626 55.4297C21.3746 55.2405 21.2691 54.9846 21.2691 54.7178C21.2691 54.4511 21.3746 54.1952 21.5626 54.0059L23.4376 52.1309C23.5298 52.0319 23.641 51.9525 23.7645 51.8974C23.8881 51.8423 24.0215 51.8127 24.1568 51.8104C24.292 51.808 24.4264 51.833 24.5518 51.8837C24.6772 51.9344 24.7911 52.0099 24.8867 52.1057C24.9823 52.2014 25.0576 52.3154 25.1081 52.4409C25.1586 52.5664 25.1833 52.7008 25.1808 52.8361C25.1782 52.9713 25.1484 53.1047 25.0931 53.2282C25.0378 53.3516 24.9582 53.4627 24.8591 53.5547L22.9841 55.4297C22.7952 55.6176 22.5397 55.723 22.2733 55.723C22.007 55.723 21.7514 55.6176 21.5626 55.4297ZM25.8095 57.9434C25.6194 58.1252 25.3657 58.2255 25.1026 58.2226C24.8396 58.2197 24.5882 58.114 24.4021 57.9281C24.216 57.7422 24.1101 57.4908 24.107 57.2278C24.1039 56.9648 24.2039 56.711 24.3856 56.5208L26.1059 54.8016C26.1575 54.7501 26.2067 54.6961 26.2536 54.6411L26.2618 54.6493C26.4519 54.4674 26.7056 54.3672 26.9686 54.3701C27.2316 54.3729 27.4831 54.4787 27.6692 54.6646C27.8552 54.8505 27.9611 55.1019 27.9642 55.3649C27.9673 55.6279 27.8673 55.8817 27.6856 56.0719L25.8095 57.9434ZM44.1317 49.7883C43.8981 50.0245 43.5841 50.164 43.2522 50.179C42.9204 50.194 42.595 50.0834 42.3411 49.8692L41.6555 49.2985C41.6077 49.2289 41.5501 49.1665 41.4845 49.1133L39.9024 47.843C39.7202 47.7061 39.492 47.6453 39.2658 47.6735C39.0397 47.7017 38.8333 47.8166 38.6903 47.994C38.5472 48.1714 38.4787 48.3974 38.4991 48.6244C38.5195 48.8514 38.6273 49.0616 38.7997 49.2106L40.1637 50.311C40.2016 50.3634 40.2448 50.4117 40.2927 50.4551C40.4282 50.5751 40.5377 50.7215 40.6145 50.8854C40.6913 51.0493 40.7337 51.2272 40.7392 51.4081C40.7447 51.589 40.7131 51.7691 40.6464 51.9374C40.5797 52.1056 40.4792 52.2584 40.3512 52.3864L40.302 52.4356C40.0798 52.6588 39.7852 52.7956 39.4713 52.8213C39.1573 52.8471 38.8444 52.7602 38.5887 52.5762L37.2305 51.6036L37.2165 51.593L36.7032 51.2262C36.5136 51.0906 36.2779 51.0358 36.0479 51.0739C35.8179 51.112 35.6125 51.24 35.4768 51.4295C35.3412 51.6191 35.2864 51.8548 35.3245 52.0848C35.3626 52.3148 35.4906 52.5202 35.6802 52.6559L36.2028 53.0297C36.3579 53.1427 36.4867 53.288 36.5803 53.4556C36.6739 53.6232 36.73 53.8091 36.7448 54.0005C36.7596 54.1918 36.7328 54.3841 36.6661 54.5641C36.5995 54.7441 36.4946 54.9075 36.3587 55.043L36.286 55.1157C36.0469 55.3545 35.7258 55.4934 35.388 55.5041C35.0502 55.5147 34.721 55.3964 34.4673 55.1731L33.0024 53.884C32.9183 53.7968 32.817 53.7279 32.705 53.6816C32.5929 53.6354 32.4725 53.6128 32.3513 53.6154C32.2301 53.6179 32.1108 53.6455 32.0008 53.6964C31.8907 53.7472 31.7924 53.8203 31.712 53.911C31.6316 54.0017 31.5708 54.1081 31.5335 54.2234C31.4962 54.3388 31.4831 54.4606 31.4951 54.5812C31.5071 54.7018 31.544 54.8186 31.6033 54.9243C31.6626 55.03 31.7432 55.1223 31.8399 55.1954L32.338 55.636C32.4737 55.7553 32.5836 55.9011 32.661 56.0643C32.7384 56.2276 32.7817 56.405 32.7881 56.5855C32.7946 56.7661 32.7641 56.9461 32.6986 57.1145C32.6331 57.2829 32.5339 57.4362 32.4071 57.5649L32.3075 57.6657C32.0813 57.8942 31.7802 58.0334 31.4596 58.0575C31.1389 58.0816 30.8204 57.9891 30.5626 57.7969L29.2969 56.8524C29.5644 56.4346 29.7146 55.9526 29.7316 55.4568C29.7487 54.9611 29.632 54.4698 29.3939 54.0347C29.1558 53.5995 28.8049 53.2365 28.3782 52.9836C27.9514 52.7307 27.4645 52.5972 26.9684 52.5973H26.8993C26.8375 51.9099 26.5208 51.2705 26.0114 50.8049C25.5019 50.3393 24.8367 50.0812 24.1466 50.0813H24.0751C24.0113 49.3839 23.6843 48.7369 23.1605 48.2719C22.6368 47.8069 21.9556 47.5589 21.2555 47.5782C21.2004 46.9321 20.9176 46.3266 20.4575 45.8696C19.9388 45.3518 19.2358 45.0609 18.5028 45.0609C17.7699 45.0609 17.0669 45.3518 16.5481 45.8696L15.6024 46.8141L9.56726 43.4157L13.9595 32.3016L17.9368 34.6793C18.0415 34.742 18.1581 34.7822 18.2791 34.7973C18.4002 34.8124 18.523 34.8022 18.6399 34.7672L21.9821 33.7723C22.5405 33.6078 23.129 33.5727 23.7031 33.6695C24.2771 33.7664 24.8215 33.9927 25.295 34.3313L25.7567 34.6641L21.0587 38.1504C20.7101 38.4092 20.4266 38.7457 20.2305 39.133C20.0345 39.5204 19.9314 39.9481 19.9294 40.3823C19.9273 40.8164 20.0264 41.2451 20.2187 41.6343C20.4111 42.0235 20.6914 42.3626 21.0376 42.6247C21.6904 43.1148 22.4762 43.3962 23.2917 43.4319C24.1073 43.4677 24.9146 43.2562 25.6079 42.8251L29.2969 40.5036C29.7259 41.359 30.5274 42.5215 31.9196 43.2376C33.5333 44.0672 35.495 44.0883 37.7567 43.3008L43.9677 47.7739C44.1237 47.8866 44.2535 48.0318 44.3479 48.1995C44.4424 48.3672 44.4994 48.5534 44.5149 48.7453C44.5303 48.9371 44.504 49.1301 44.4377 49.3108C44.3713 49.4915 44.2665 49.6556 44.1305 49.7919L44.1317 49.7883ZM45.2614 46.5352L38.4059 41.6016C38.287 41.5162 38.1486 41.4618 38.0033 41.4434C37.858 41.425 37.7104 41.4431 37.5739 41.4961C35.6169 42.2555 33.9915 42.3165 32.7399 41.6825C31.0829 40.8399 30.5755 38.9977 30.5708 38.9872C30.5366 38.8531 30.4711 38.729 30.3799 38.6249C30.2886 38.5209 30.1741 38.4399 30.0456 38.3885C29.9171 38.3371 29.7783 38.3168 29.6405 38.3292C29.5026 38.3416 29.3697 38.3863 29.2524 38.4598L24.6727 41.3321C24.2815 41.5752 23.8257 41.6942 23.3655 41.6733C22.9053 41.6524 22.4622 41.4926 22.0946 41.2149C21.9661 41.1178 21.8619 40.9921 21.7905 40.8477C21.7191 40.7033 21.6823 40.5442 21.6831 40.3832C21.6839 40.2221 21.7222 40.0634 21.7951 39.9197C21.8679 39.776 21.9733 39.6513 22.1028 39.5555L29.6661 33.9422C30.088 33.6299 30.5697 33.4079 31.0813 33.2902C31.5928 33.1724 32.1232 33.1614 32.6391 33.2579L40.6641 34.7649C40.8466 34.7999 41.0355 34.7756 41.2032 34.6958L46.0735 32.3825L50.6286 43.909L45.2614 46.5352ZM53.0485 45.2391L46.7966 29.4188L48.9364 28.6559L51.7407 36.6422C51.7792 36.7512 51.8387 36.8515 51.916 36.9374C51.9932 37.0234 52.0866 37.0933 52.1909 37.1431C52.2951 37.1929 52.4082 37.2218 52.5235 37.2279C52.6389 37.2341 52.7544 37.2174 52.8634 37.179C52.9723 37.1405 53.0726 37.0809 53.1586 37.0037C53.2445 36.9264 53.3144 36.833 53.3642 36.7288C53.4141 36.6245 53.4429 36.5115 53.449 36.3961C53.4552 36.2807 53.4385 36.1653 53.4001 36.0563L50.5876 28.0618L52.0466 27.5426L57.9962 43.0993L53.0485 45.2391Z" fill="#12364F"/>
<g id="Group">
<path id="Vector_2" d="M53.4367 12.8906H48.5664C48.3333 12.8906 48.1098 12.9832 47.9449 13.1481C47.7801 13.3129 47.6875 13.5364 47.6875 13.7695C47.6875 14.0026 47.7801 14.2262 47.9449 14.391C48.1098 14.5558 48.3333 14.6484 48.5664 14.6484H53.4367C53.6698 14.6484 53.8934 14.5558 54.0582 14.391C54.223 14.2262 54.3156 14.0026 54.3156 13.7695C54.3156 13.5364 54.223 13.3129 54.0582 13.1481C53.8934 12.9832 53.6698 12.8906 53.4367 12.8906Z" fill="#12364F"/>
<path id="Vector_3" d="M46.7413 9.7631C46.8975 9.76431 47.0512 9.72385 47.1866 9.64591L50.8381 7.50021C51.0402 7.38226 51.187 7.18889 51.2465 6.96264C51.3059 6.73638 51.2731 6.49578 51.1551 6.29376C51.0372 6.09174 50.8438 5.94485 50.6176 5.8854C50.3913 5.82596 50.1507 5.85882 49.9487 5.97677L46.2959 8.12599C46.1277 8.22285 45.9962 8.3727 45.9221 8.55216C45.8479 8.73162 45.8353 8.93058 45.8862 9.11797C45.937 9.30535 46.0485 9.47062 46.2032 9.58797C46.3579 9.70532 46.5471 9.76813 46.7413 9.76661V9.7631Z" fill="#12364F"/>
<path id="Vector_4" d="M50.8392 20.0389L47.1876 17.8944C47.0881 17.8337 46.9774 17.7935 46.8622 17.776C46.7469 17.7586 46.6293 17.7642 46.5163 17.7926C46.4032 17.821 46.2969 17.8716 46.2036 17.9415C46.1103 18.0114 46.0318 18.0992 45.9728 18.1997C45.9137 18.3002 45.8752 18.4114 45.8595 18.5269C45.8439 18.6424 45.8513 18.7599 45.8815 18.8725C45.9117 18.9851 45.964 19.0906 46.0353 19.1828C46.1066 19.275 46.1956 19.3521 46.297 19.4096L49.9497 21.5623C50.1518 21.6803 50.3924 21.7132 50.6186 21.6537C50.8449 21.5943 51.0382 21.4474 51.1562 21.2453C51.2741 21.0433 51.307 20.8027 51.2476 20.5765C51.1881 20.3502 51.0412 20.1569 50.8392 20.0389Z" fill="#12364F"/>
<path id="Vector_5" d="M12.3117 13.7695C12.3117 13.5364 12.2191 13.3129 12.0543 13.1481C11.8895 12.9832 11.6659 12.8906 11.4328 12.8906H6.5625C6.3294 12.8906 6.10585 12.9832 5.94102 13.1481C5.77619 13.3129 5.68359 13.5364 5.68359 13.7695C5.68359 14.0026 5.77619 14.2262 5.94102 14.391C6.10585 14.5558 6.3294 14.6484 6.5625 14.6484H11.4328C11.5482 14.6484 11.6625 14.6257 11.7692 14.5815C11.8758 14.5374 11.9727 14.4726 12.0543 14.391C12.1359 14.3094 12.2006 14.2125 12.2448 14.1059C12.289 13.9992 12.3117 13.885 12.3117 13.7695Z" fill="#12364F"/>
<path id="Vector_6" d="M13.7041 8.12599L10.0514 5.97677C9.95135 5.91837 9.8408 5.88024 9.72603 5.86456C9.61126 5.84888 9.49454 5.85597 9.38251 5.8854C9.15625 5.94485 8.96288 6.09174 8.84493 6.29376C8.72699 6.49578 8.69412 6.73638 8.75357 6.96263C8.81302 7.18889 8.95991 7.38226 9.16193 7.50021L12.8135 9.64474C12.9131 9.70538 13.0237 9.7456 13.1389 9.76307C13.2542 9.78054 13.3718 9.77491 13.4849 9.74649C13.5979 9.71808 13.7042 9.66746 13.7975 9.59758C13.8908 9.5277 13.9693 9.43996 14.0284 9.33946C14.0874 9.23895 14.1259 9.1277 14.1416 9.01218C14.1573 8.89666 14.1498 8.77918 14.1196 8.66658C14.0894 8.55398 14.0372 8.4485 13.9658 8.3563C13.8945 8.26409 13.8055 8.187 13.7041 8.1295V8.12599Z" fill="#12364F"/>
<path id="Vector_7" d="M12.8135 17.8982L9.16193 20.0392C8.95991 20.1571 8.81302 20.3505 8.75357 20.5768C8.69412 20.803 8.72699 21.0436 8.84493 21.2456C8.96288 21.4477 9.15625 21.5946 9.38251 21.654C9.60876 21.7134 9.84936 21.6806 10.0514 21.5626L13.7041 19.4169C13.8055 19.3594 13.8945 19.2823 13.9658 19.1901C14.0372 19.0979 14.0894 18.9925 14.1196 18.8799C14.1498 18.7673 14.1573 18.6498 14.1416 18.5342C14.1259 18.4187 14.0874 18.3075 14.0284 18.207C13.9693 18.1065 13.8908 18.0187 13.7975 17.9488C13.7042 17.879 13.5979 17.8283 13.4849 17.7999C13.3718 17.7715 13.2542 17.7659 13.1389 17.7834C13.0237 17.8008 12.9131 17.8411 12.8135 17.9017V17.8982Z" fill="#12364F"/>
<path id="Vector_8" d="M30 5.27344C28.3196 5.27344 26.677 5.77172 25.2798 6.70529C23.8827 7.63885 22.7937 8.96576 22.1506 10.5182C21.5076 12.0707 21.3393 13.779 21.6672 15.427C21.995 17.0751 22.8042 18.589 23.9924 19.7772C25.1806 20.9654 26.6944 21.7746 28.3425 22.1024C29.9906 22.4302 31.6989 22.2619 33.2513 21.6189C34.8038 20.9758 36.1307 19.8869 37.0642 18.4897C37.9978 17.0925 38.4961 15.4499 38.4961 13.7695C38.4936 11.517 37.5977 9.35742 36.0049 7.76463C34.4121 6.17184 32.2525 5.27592 30 5.27344ZM35.3297 11.1469L29.3133 17.5922C29.2309 17.6808 29.1312 17.7514 29.0203 17.7998C28.9094 17.8481 28.7897 17.873 28.6688 17.873C28.5478 17.873 28.4281 17.8481 28.3172 17.7998C28.2063 17.7514 28.1066 17.6808 28.0242 17.5922L24.6668 13.9945C24.5077 13.8236 24.423 13.5964 24.4313 13.363C24.4397 13.1296 24.5404 12.9091 24.7113 12.75C24.8823 12.5909 25.1094 12.5062 25.3428 12.5145C25.5762 12.5229 25.7967 12.6236 25.9559 12.7945L28.6711 15.7031L34.0453 9.9457C34.2044 9.77476 34.425 9.67404 34.6584 9.66569C34.8918 9.65734 35.1189 9.74204 35.2898 9.90117C35.4608 10.0603 35.5615 10.2808 35.5699 10.5142C35.5782 10.7476 35.4935 10.9748 35.3344 11.1457L35.3297 11.1469Z" fill="#EE8727"/>
<path id="Vector_9" d="M30 0C27.2766 0 24.6145 0.807569 22.3501 2.32058C20.0857 3.8336 18.3208 5.98411 17.2786 8.50016C16.2364 11.0162 15.9638 13.7848 16.4951 16.4558C17.0264 19.1269 18.3378 21.5804 20.2635 23.5061C22.1892 25.4318 24.6427 26.7432 27.3137 27.2745C29.9847 27.8058 32.7533 27.5331 35.2694 26.4909C37.7854 25.4487 39.9359 23.6839 41.449 21.4195C42.962 19.1551 43.7695 16.4929 43.7695 13.7695C43.7655 10.1189 42.3135 6.61887 39.7321 4.03746C37.1507 1.45604 33.6507 0.00403235 30 0ZM30 24.0234C27.972 24.0234 25.9895 23.4221 24.3032 22.2953C22.617 21.1686 21.3027 19.5672 20.5266 17.6935C19.7505 15.8199 19.5475 13.7582 19.9431 11.7691C20.3388 9.78003 21.3154 7.95296 22.7494 6.51892C24.1834 5.08489 26.0105 4.1083 27.9996 3.71265C29.9886 3.317 32.0503 3.52006 33.924 4.29616C35.7977 5.07225 37.3991 6.38652 38.5258 8.07277C39.6525 9.75901 40.2539 11.7415 40.2539 13.7695C40.2508 16.4881 39.1695 19.0944 37.2472 21.0167C35.3249 22.939 32.7186 24.0203 30 24.0234Z" fill="#12364F"/>
</g>
</g>
<defs>
<clipPath id="clip0_157_149033">
<rect width="60" height="60" fill="white"/>
</clipPath>
</defs>
</svg>
