<svg width="45" height="45" viewBox="0 0 45 45" fill="none" xmlns="http://www.w3.org/2000/svg">
<g id="Layer_1" clip-path="url(#clip0_348_462)">
<path id="Vector" d="M26.25 13.1523V0.887891C27.9619 1.53664 29.5369 2.53602 30.8719 3.86914L37.4044 10.4054C38.7394 11.7385 39.7388 13.3135 40.3875 15.0254H28.125C27.09 15.0254 26.25 14.1854 26.25 13.1523ZM41.205 18.7773H28.125C25.0238 18.7773 22.5 16.2535 22.5 13.1523V0.0703906C22.1981 0.0497656 21.8962 0.0253906 21.5906 0.0253906H13.125C7.95563 0.0272656 3.75 4.23289 3.75 9.40227V35.6523C3.75 40.8216 7.95563 45.0273 13.125 45.0273H31.875C37.0444 45.0273 41.25 40.8216 41.25 35.6523V19.6866C41.25 19.381 41.2256 19.0791 41.205 18.7773ZM29.4506 34.726L26.4263 37.7523C25.3444 38.8341 23.9212 39.376 22.5 39.376C21.0788 39.376 19.6556 38.8341 18.5738 37.7523L15.5494 34.726C14.8163 33.9929 14.8163 32.806 15.5494 32.0748C16.2825 31.3416 17.4675 31.3416 18.2006 32.0748L20.625 34.4991V26.2529C20.625 25.2179 21.4631 24.3779 22.5 24.3779C23.5369 24.3779 24.375 25.2179 24.375 26.2529V34.4991L26.7994 32.0748C27.5325 31.3416 28.7175 31.3416 29.4506 32.0748C30.1838 32.806 30.1838 33.9929 29.4506 34.726Z" fill="#12364F"/>
</g>
<defs>
<clipPath id="clip0_348_462">
<rect width="45" height="45" fill="white"/>
</clipPath>
</defs>
</svg>
