<svg width="60" height="60" viewBox="0 0 60 60" fill="none" xmlns="http://www.w3.org/2000/svg">
<g id="eva:arrow-up-fill">
<path id="Vector" d="M40.526 35.7068H19.476C18.6449 35.7078 17.8306 35.5187 17.1271 35.1615C16.4236 34.8042 15.8598 34.2934 15.501 33.6882C15.0809 32.9702 14.9191 32.1712 15.034 31.3825C15.1489 30.5938 15.536 29.847 16.151 29.2273L26.676 18.9327C27.089 18.5479 27.5997 18.2393 28.1733 18.0278C28.747 17.8162 29.3703 17.7068 30.001 17.7068C30.6316 17.7068 31.2549 17.8162 31.8286 18.0278C32.4023 18.2393 32.9129 18.5479 33.326 18.9327L43.851 29.2273C44.466 29.847 44.853 30.5938 44.9679 31.3825C45.0828 32.1712 44.921 32.9702 44.501 33.6882C44.1421 34.2934 43.5783 34.8042 42.8749 35.1615C42.1714 35.5187 41.357 35.7078 40.526 35.7068Z" fill="white"/>
</g>
</svg>
