<svg width="86" height="86" viewBox="0 0 86 86" fill="none" xmlns="http://www.w3.org/2000/svg">
<g id="Layer_1">
<path id="Vector" d="M80.1263 38.9359C77.2455 38.9359 74.7698 37.2793 73.6652 34.6124C72.5605 31.9454 73.1396 29.0232 75.1766 26.986C76.5741 25.5883 76.5741 23.3142 75.1766 21.9164L69.9609 16.7008C68.5633 15.3035 66.2891 15.3035 64.8912 16.7008C62.8541 18.738 59.9319 19.3172 57.265 18.2122C54.5983 17.1077 52.9416 14.6319 52.9416 11.7512C52.9416 9.77464 51.3336 8.16661 49.357 8.16661H41.9814C40.0048 8.16661 38.3968 9.77464 38.3968 11.7512C38.3968 14.3937 37.0962 16.2673 35.5365 17.3929V5.24606C35.5365 3.58773 34.1873 2.23853 32.5288 2.23853H4.70692C3.04843 2.23853 1.69922 3.58773 1.69922 5.24606V22.8626C1.69922 24.5211 3.04843 25.8704 4.70692 25.8704H14.6219C14.7811 26.6895 15.1186 27.8582 15.8331 29.0678C16.3484 29.9402 17.109 30.9106 18.2211 31.7812C18.2465 33.5924 17.5728 35.3704 16.3298 36.7246C15.0211 38.1505 13.2036 38.9358 11.2119 38.9358C9.23533 38.9358 7.6273 40.544 7.6273 42.5206V49.8961C7.6273 51.8725 9.23533 53.4807 11.2119 53.4807C14.0926 53.4807 16.5684 55.1374 17.6731 57.8045C18.7777 60.4713 18.1987 63.3937 16.1617 65.4307C15.4847 66.1077 15.1118 67.0079 15.1118 67.9656C15.1118 68.9233 15.4847 69.8233 16.1617 70.5005L21.3772 75.7159C22.0542 76.3929 22.9544 76.7658 23.9121 76.7658C24.8697 76.7658 25.7698 76.3929 26.447 75.716C28.487 73.6757 31.41 73.0945 34.0756 74.1987C36.741 75.3027 38.3968 77.7806 38.3968 80.6656C38.3968 82.6422 40.0048 84.2504 41.9814 84.2504H49.357C51.3336 84.2504 52.9416 82.6422 52.9416 80.6656C52.9416 77.7848 54.5983 75.309 57.2651 74.2045C59.9322 73.0998 62.8544 73.6789 64.8914 75.7159C65.5684 76.3927 66.4686 76.7656 67.4263 76.7656C68.384 76.7656 69.2842 76.3927 69.961 75.7159L75.1767 70.5003C75.8538 69.8233 76.2266 68.9232 76.2266 67.9654C76.2266 67.0077 75.8538 66.1077 75.1767 65.4305C73.1397 63.3935 72.5605 60.4713 73.6653 57.8043C74.77 55.1374 77.2458 53.4806 80.1265 53.4806C82.1031 53.4806 83.7111 51.8724 83.7111 49.896V42.5204C83.7109 40.544 82.1029 38.9359 80.1263 38.9359ZM16.8037 24.6843C16.7905 24.0518 16.2742 23.5463 15.6417 23.5463H4.70692C4.33007 23.5463 4.02344 23.2397 4.02344 22.8628V5.24606C4.02344 4.86937 4.33007 4.56274 4.70692 4.56274H32.5288C32.9057 4.56274 33.2123 4.86937 33.2123 5.24606V22.8626C33.2123 23.2397 32.9057 23.5461 32.5288 23.5461H23.1207C22.5778 23.5461 22.1074 23.922 21.9873 24.4514C21.3158 27.4145 21.7977 29.7812 22.4409 31.3998C17.0281 29.6298 16.8106 24.905 16.8037 24.6843ZM81.3867 49.8961C81.3867 50.5912 80.8213 51.1565 80.1263 51.1565C76.2877 51.1565 72.9892 53.363 71.5178 56.9149C70.0465 60.467 70.8187 64.3599 73.533 67.0743C73.7711 67.3122 73.9021 67.6288 73.9021 67.9654C73.9021 68.3021 73.7709 68.6189 73.533 68.8566L68.3173 74.0723C68.0794 74.3104 67.7628 74.4414 67.4261 74.4414C67.0895 74.4414 66.7727 74.3104 66.5348 74.0722C63.8206 71.3578 59.9279 70.5858 56.3756 72.0569C52.8237 73.5281 50.6172 76.8267 50.6172 80.6655C50.6172 81.3606 50.0518 81.926 49.3568 81.926H41.9813C41.2863 81.926 40.7209 81.3606 40.7209 80.6655C40.7209 76.8227 38.5153 73.5218 34.9649 72.0511C31.4147 70.5807 27.521 71.355 24.8034 74.0722C24.5654 74.3104 24.2488 74.4414 23.9121 74.4414C23.5753 74.4414 23.2587 74.3104 23.0208 74.0722L17.8052 68.8566C17.5672 68.6187 17.4362 68.3021 17.4362 67.9654C17.4362 67.6288 17.5673 67.312 17.8052 67.0743C20.5196 64.3597 21.2917 60.467 19.8205 56.9151C18.3493 53.3632 15.0507 51.1565 11.2119 51.1565C10.517 51.1565 9.95152 50.5912 9.95152 49.8961V42.5206C9.95152 41.8255 10.517 41.26 11.2119 41.26C13.8624 41.26 16.288 40.2075 18.0421 38.2961C19.3703 36.8491 20.207 35.0342 20.463 33.1247C21.5987 33.6356 22.9567 34.0325 24.5818 34.2357C24.6298 34.2417 24.6776 34.2447 24.7249 34.2447C25.1498 34.2447 25.5444 34.0091 25.7484 33.6271C25.9752 33.2028 25.9143 32.6795 25.5993 32.3159C25.5085 32.211 23.5258 29.8642 24.0876 25.8704H32.5288C34.1873 25.8704 35.5365 24.5211 35.5365 22.8626V20.1001C38.7544 18.5268 40.721 15.3958 40.721 11.7512C40.721 11.0561 41.2865 10.4908 41.9814 10.4908H49.357C50.0521 10.4908 50.6174 11.0561 50.6174 11.7512C50.6174 15.5898 52.8239 18.8884 56.3758 20.3598C59.9279 21.8312 63.8206 21.0591 66.5348 18.3445C67.0265 17.853 67.8261 17.853 68.3175 18.3445L73.5332 23.5599C74.0246 24.0515 74.0246 24.8512 73.5332 25.3426C70.8188 28.0571 70.0467 31.9498 71.5179 35.5017C72.9892 39.0537 76.2877 41.2602 80.1265 41.2602C80.8214 41.2602 81.3869 41.8256 81.3869 42.5207V49.8961H81.3867ZM45.6691 23.5385C39.6137 23.5385 33.9209 25.8966 29.639 30.1783C25.3571 34.4602 22.9992 40.153 22.9992 46.2084C22.9992 58.7086 33.169 68.8784 45.6691 68.8784C51.7245 68.8784 57.4174 66.5203 61.6993 62.2386C65.9811 57.9567 68.3391 52.2638 68.3391 46.2084C68.3391 33.7083 58.1693 23.5385 45.6691 23.5385ZM33.156 62.2401C33.1446 62.1589 33.1379 62.0779 33.1379 61.9963C33.1379 57.9663 35.1124 54.1621 38.356 51.8216L44.6978 61.479C44.9126 61.8064 45.2777 62.0033 45.6691 62.0033C46.0606 62.0033 46.4257 61.8061 46.6405 61.479L52.9826 51.8213C56.2262 54.1617 58.2006 57.966 58.2006 61.9963C58.2006 62.0833 58.1935 62.1695 58.1806 62.2562C54.6208 65.0427 50.2613 66.554 45.6693 66.554C40.9546 66.554 36.6096 64.9416 33.156 62.2401ZM46.6229 50.7333C46.6229 50.7332 46.6231 50.7329 46.6232 50.7325L46.6229 50.7333ZM46.6576 50.6271H44.6808L44.3035 49.4655H47.0351L46.6576 50.6271ZM44.9853 52.9513H46.3529L46.8797 56.8807L45.6691 58.7243L44.4585 56.8809L44.9853 52.9513ZM60.4156 60.2261C59.864 55.6906 57.2213 51.5769 53.2411 49.2143C52.7067 48.8969 52.0176 49.0564 51.6766 49.5759L48.8271 53.915L48.5692 51.9917C48.6795 51.8274 48.7698 51.6469 48.8334 51.4514L49.3107 49.9825C49.5252 49.3224 49.4104 48.5944 49.0037 48.0348C48.5971 47.4753 47.9402 47.1411 47.2463 47.1411H44.092C43.398 47.1411 42.7411 47.4753 42.3345 48.0348C41.928 48.5944 41.8132 49.3225 42.0276 49.9825L42.5049 51.4514C42.5683 51.6468 42.6588 51.8272 42.769 51.9916L42.5112 53.915L39.6618 49.5761C39.3209 49.0568 38.6317 48.8974 38.0973 49.2145C34.1211 51.5747 31.4794 55.6828 30.9243 60.213C27.4552 56.5625 25.3234 51.6297 25.3234 46.2081C25.3234 40.7736 27.4396 35.6643 31.2825 31.8215C35.1253 27.9789 40.2346 25.8624 45.6691 25.8624C56.8878 25.8624 66.0148 34.9894 66.0148 46.2081C66.015 51.4708 64.0304 56.4282 60.4156 60.2261ZM45.6691 30.8372C41.5387 30.8372 38.178 34.1972 38.178 38.3272C38.178 42.4578 41.5385 45.8183 45.6691 45.8183C49.7998 45.8183 53.1602 42.4578 53.1602 38.3272C53.1602 34.1972 49.7998 30.8372 45.6691 30.8372ZM45.6691 43.4941C42.8201 43.4941 40.5022 41.1762 40.5022 38.3272C40.5022 35.4788 42.82 33.1614 45.6691 33.1614C48.5183 33.1614 50.836 35.4788 50.836 38.3272C50.836 41.1762 48.5183 43.4941 45.6691 43.4941ZM7.62747 8.63942C7.62747 7.99761 8.14776 7.47731 8.78958 7.47731H28.4462C29.088 7.47731 29.6083 7.99761 29.6083 8.63942C29.6083 9.28124 29.088 9.80153 28.4462 9.80153H8.78958C8.14776 9.80153 7.62747 9.28124 7.62747 8.63942ZM7.62747 14.0545C7.62747 13.4127 8.14776 12.8924 8.78958 12.8924H28.4462C29.088 12.8924 29.6083 13.4127 29.6083 14.0545C29.6083 14.6963 29.088 15.2166 28.4462 15.2166H8.78958C8.14776 15.2166 7.62747 14.6963 7.62747 14.0545ZM28.4462 20.6316H8.78958C8.14776 20.6316 7.62747 20.1113 7.62747 19.4695C7.62747 18.8276 8.14776 18.3073 8.78958 18.3073H28.4462C29.088 18.3073 29.6083 18.8276 29.6083 19.4695C29.6083 20.1113 29.088 20.6316 28.4462 20.6316Z" fill="#EE8727"/>
</g>
</svg>
