<svg width="29" height="25" viewBox="0 0 29 25" fill="none" xmlns="http://www.w3.org/2000/svg">
<g id="linkedin_symbol.svg" clip-path="url(#clip0_330_1287)">
<path id="Path 2525" d="M27.6052 22.532C27.6662 22.5326 27.7267 22.5208 27.7829 22.4973C27.8391 22.4738 27.8898 22.4391 27.9319 22.3954C27.974 22.3517 28.0066 22.2999 28.0276 22.2432C28.0486 22.1865 28.0577 22.1261 28.0541 22.0658C28.0541 21.7351 27.8527 21.5771 27.4393 21.5771H26.7715V23.3083H27.0227V22.5537H27.3314L27.3384 22.5629L27.8174 23.3083H28.0861L27.5707 22.5368L27.6052 22.532ZM27.3147 22.3586H27.0234V21.7733H27.3926C27.5833 21.7733 27.8007 21.8042 27.8007 22.0515C27.8007 22.3358 27.5807 22.3586 27.3132 22.3586" fill="white"/>
<path id="Path 2520" d="M21.0537 20.3625H17.4917V14.8392C17.4917 13.5221 17.468 11.8266 15.6391 11.8266C13.7839 11.8266 13.5 13.2616 13.5 14.7433V20.3621H9.93801V9.00396H13.3575V10.5562H13.4054C13.7476 9.97682 14.2421 9.50022 14.8363 9.17712C15.4304 8.85403 16.1019 8.69655 16.7793 8.72144C20.3896 8.72144 21.0552 11.0727 21.0552 14.1316L21.0537 20.3625ZM5.91888 7.45138C5.51005 7.45145 5.11037 7.33149 4.7704 7.10665C4.43043 6.88182 4.16545 6.56221 4.00893 6.18825C3.85241 5.81428 3.81139 5.40277 3.89108 5.00573C3.97077 4.60869 4.16758 4.24396 4.45661 3.95767C4.74565 3.67138 5.11393 3.47639 5.51489 3.39734C5.91585 3.3183 6.33147 3.35875 6.70921 3.5136C7.08694 3.66844 7.40982 3.93072 7.63702 4.26726C7.86421 4.6038 7.98552 4.99949 7.98559 5.40429C7.98564 5.67307 7.93222 5.93923 7.82838 6.18757C7.72455 6.43591 7.57234 6.66156 7.38043 6.85165C7.18852 7.04174 6.96066 7.19254 6.70989 7.29544C6.45911 7.39834 6.19034 7.45133 5.91888 7.45138ZM7.69988 20.3625H4.13417V9.00396H7.69988V20.3625ZM22.8295 0.0826764H2.34427C1.87931 0.077481 1.43127 0.255274 1.09864 0.576985C0.766002 0.898696 0.575987 1.33801 0.570312 1.79838V22.166C0.575793 22.6266 0.765696 23.0662 1.09832 23.3883C1.43094 23.7103 1.87908 23.8885 2.34427 23.8836H22.8295C23.2956 23.8893 23.745 23.7117 24.079 23.3897C24.4129 23.0676 24.6041 22.6275 24.6105 22.166V1.79691C24.6039 1.33562 24.4126 0.895814 24.0786 0.574111C23.7447 0.252407 23.2954 0.0751224 22.8295 0.0812063" fill="white"/>
<path id="Path 2526" d="M27.3462 20.8057C26.9128 20.8098 26.4987 20.9837 26.1945 21.2893C25.8902 21.5949 25.7206 22.0074 25.7227 22.4365C25.7248 22.8656 25.8984 23.2765 26.2056 23.5792C26.5128 23.8819 26.9285 24.0518 27.3619 24.0518C27.7953 24.0518 28.2111 23.8819 28.5183 23.5792C28.8255 23.2765 28.9991 22.8656 29.0012 22.4365C29.0033 22.0074 28.8336 21.5949 28.5294 21.2893C28.2252 20.9837 27.8111 20.8098 27.3777 20.8057H27.3462ZM27.3462 23.866C27.0619 23.8707 26.7826 23.7918 26.5437 23.6393C26.3047 23.4869 26.1167 23.2676 26.0036 23.0094C25.8904 22.7512 25.8572 22.4655 25.908 22.1885C25.9588 21.9116 26.0914 21.6558 26.2891 21.4534C26.4867 21.2511 26.7405 21.1113 27.0184 21.0518C27.2962 20.9923 27.5857 21.0158 27.8501 21.1191C28.1146 21.2225 28.3421 21.4012 28.504 21.6326C28.6658 21.864 28.7547 22.1378 28.7595 22.4192C28.7595 22.4273 28.7595 22.435 28.7595 22.4431C28.7674 22.8123 28.6269 23.1696 28.3689 23.4363C28.1109 23.703 27.7565 23.8573 27.3836 23.8653H27.3465" fill="white"/>
</g>
<defs>
<clipPath id="clip0_330_1287">
<rect width="28.4308" height="24" fill="white" transform="translate(0.570312 0.0810547)"/>
</clipPath>
</defs>
</svg>
