<svg width="33" height="34" viewBox="0 0 33 34" fill="none" xmlns="http://www.w3.org/2000/svg">
<g id="location-time_16104620 1" clip-path="url(#clip0_330_1174)">
<g id="Group">
<g id="Group_2">
<path id="Vector" d="M16.5005 33.081C20.0055 33.081 22.8468 31.5759 22.8468 29.7192C22.8468 27.8626 20.0055 26.3574 16.5005 26.3574C12.9956 26.3574 10.1543 27.8626 10.1543 29.7192C10.1543 31.5759 12.9956 33.081 16.5005 33.081Z" fill="#EE8727"/>
<path id="Vector_2" d="M28.4699 12.6949C28.4699 23.078 16.4996 28.9004 16.4996 28.9004C16.4996 28.9004 4.5293 23.078 4.5293 12.6949C4.5293 6.08448 9.88857 0.725586 16.4996 0.725586C23.1106 0.725586 28.4699 6.08448 28.4699 12.6949Z" fill="#FF8201"/>
<path id="Vector_3" d="M12.7413 11.6548C12.7413 7.55827 14.0875 3.77616 16.3617 0.726562C9.8142 0.80049 4.5293 6.13063 4.5293 12.6951C4.5293 23.0781 16.4996 28.9006 16.4996 28.9006C16.4996 28.9006 18.2004 28.0732 20.3199 26.4863C15.7282 23.1614 12.7413 17.7569 12.7413 11.6548Z" fill="#12364F"/>
<path id="Vector_4" d="M16.4997 19.5422C20.3634 19.5422 23.4955 16.4295 23.4955 12.5899C23.4955 8.75032 20.3634 5.6377 16.4997 5.6377C12.636 5.6377 9.50391 8.75032 9.50391 12.5899C9.50391 16.4295 12.636 19.5422 16.4997 19.5422Z" fill="#256E9C"/>
<path id="Vector_5" d="M12.7415 11.6544C12.7415 9.78712 13.0212 7.98514 13.5409 6.28809C11.1562 7.39578 9.50391 9.80104 9.50391 12.5897C9.50391 15.6919 11.5484 18.3194 14.3713 19.2144C13.3244 16.91 12.7415 14.3503 12.7415 11.6544Z" fill="#256E9C"/>
</g>
<g id="Group_3">
<g id="Group_4">
<g id="Group_5">
<path id="Vector_6" d="M16.4996 0.0810547C9.54375 0.0810547 3.88477 5.73959 3.88477 12.695C3.88477 15.1748 4.54161 17.6064 5.83718 19.9221C6.8634 21.7565 8.29027 23.5207 10.078 25.1656C13.1054 27.9511 16.092 29.419 16.2177 29.4801C16.3067 29.5233 16.4031 29.545 16.4996 29.545C16.5961 29.545 16.6925 29.5233 16.7815 29.4801C16.9072 29.419 19.8938 27.9511 22.9212 25.1656C24.7089 23.5207 26.1358 21.7564 27.162 19.9221C28.4576 17.6064 29.1144 15.1748 29.1144 12.695C29.1144 5.73959 23.4554 0.0810547 16.4996 0.0810547ZM22.0733 24.1941C19.7047 26.3793 17.3042 27.7454 16.4996 28.1748C15.6947 27.7452 13.2943 26.3791 10.9259 24.1941C7.1091 20.6727 5.17383 16.8039 5.17383 12.695C5.17383 6.45044 10.2545 1.37012 16.4996 1.37012C22.7447 1.37012 27.8254 6.45044 27.8254 12.695C27.8254 16.8039 25.89 20.6727 22.0733 24.1941Z" fill="white"/>
<path id="Vector_7" d="M16.4997 4.99316C12.2869 4.99316 8.85938 8.40106 8.85938 12.5899C8.85938 16.7788 12.2869 20.1867 16.4997 20.1867C20.7126 20.1867 24.14 16.7788 24.14 12.5899C24.14 8.40106 20.7126 4.99316 16.4997 4.99316ZM16.4997 18.8976C12.9976 18.8976 10.1484 16.068 10.1484 12.5899C10.1484 9.11185 12.9976 6.28223 16.4997 6.28223C20.0018 6.28223 22.851 9.11185 22.851 12.5899C22.851 16.068 20.0018 18.8976 16.4997 18.8976Z" fill="white"/>
</g>
</g>
</g>
</g>
</g>
<defs>
<clipPath id="clip0_330_1174">
<rect width="33" height="33" fill="white" transform="translate(0 0.0810547)"/>
</clipPath>
</defs>
</svg>
