<svg width="33" height="34" viewBox="0 0 33 34" fill="none" xmlns="http://www.w3.org/2000/svg">
<g id="map_11201870 1" clip-path="url(#clip0_330_1246)">
<g id="Group">
<g id="Group_2">
<path id="Vector" d="M25.3522 0.736328H7.64648C3.78049 0.736328 0.646484 3.87033 0.646484 7.73633V25.4266C0.646484 29.2926 3.78049 32.4266 7.64649 32.4266H25.3522C29.2182 32.4266 32.3522 29.2926 32.3522 25.4266V7.73633C32.3522 3.87033 29.2182 0.736328 25.3522 0.736328Z" fill="#256E9C"/>
<path id="Vector_2" d="M7.84018 28.8298V4.33318C7.84018 2.34669 6.22982 0.736328 4.24333 0.736328C2.25685 0.736328 0.646484 2.34669 0.646484 4.33318V28.8298C0.646484 30.8163 2.25685 32.4266 4.24333 32.4266C6.22982 32.4266 7.84018 30.8163 7.84018 28.8298Z" fill="#256E9C"/>
<path id="Vector_3" d="M12.6804 11.2386V19.0487L26.0526 32.4209L19.2451 32.4209L12.6804 25.8561V32.4259H7.86684V11.2386H0.646484V6.42504H7.86684V0.736328H12.6804V6.42504H32.3536V11.2386H12.6804Z" fill="white"/>
<g id="Group_3">
<path id="Vector_4" d="M18.5078 13.8912C18.5078 11.4897 20.4546 9.54297 22.856 9.54297C25.2575 9.54297 27.2042 11.4897 27.2042 13.8912C27.2042 14.6824 26.9919 15.4236 26.6225 16.0627H26.6235C26.5654 16.1591 26.6198 16.0697 26.4822 16.2902L22.668 22.4312L19.0824 16.0556H19.0854C18.7186 15.4181 18.5078 14.6795 18.5078 13.8912Z" fill="#EE8727"/>
<path id="Vector_5" d="M23.9656 14.4239C24.2599 13.8114 24.0021 13.0764 23.3896 12.782C22.7772 12.4877 22.0422 12.7455 21.7478 13.3579C21.4535 13.9703 21.7113 14.7054 22.3237 14.9998C22.9361 15.2941 23.6712 15.0363 23.9656 14.4239Z" fill="white"/>
</g>
</g>
<g id="Group_4">
<g id="Group_5">
<path id="Vector_6" d="M32.3529 0.0888672H0.647084C0.289894 0.0888672 0 0.378761 0 0.735951V32.4263C0 32.7841 0.289894 33.0733 0.647084 33.0733H32.3529C32.7108 33.0733 33 32.7841 33 32.4263V0.735951C33 0.378761 32.7108 0.0888672 32.3529 0.0888672ZM1.29417 1.38304H7.22081V5.77803H1.29417V1.38304ZM7.22081 31.7792H1.29417V11.8852H7.22081V31.7792ZM13.3286 31.7792V27.4185L17.6893 31.7792H13.3286ZM31.7058 31.7792H26.3273L13.3286 18.7805V11.8852H18.2827C18.0116 12.4993 17.8615 13.1781 17.8615 13.8912C17.8615 14.7421 18.0802 15.5814 18.4937 16.3223C18.5014 16.3397 18.5098 16.3566 18.5196 16.3727L22.105 22.7485C22.217 22.9478 22.426 23.0733 22.6551 23.0785H22.6693C22.8925 23.0785 23.1003 22.9633 23.2187 22.7731L27.0319 16.6329C27.0902 16.5397 27.1135 16.5028 27.1258 16.4834C27.1419 16.4575 27.1419 16.4575 27.1646 16.42L27.1788 16.3967C27.1866 16.3837 27.1944 16.3695 27.2015 16.3559C27.6273 15.6066 27.8524 14.755 27.8524 13.8912C27.8524 13.1781 27.7023 12.4993 27.4312 11.8852H31.7058V31.7792ZM26.5583 13.8912C26.5583 14.5402 26.3868 15.1789 26.0633 15.7392C26.06 15.7451 26.0568 15.7509 26.0536 15.7574C26.0419 15.7761 26.0413 15.7774 26.0309 15.793C26.0186 15.813 25.9947 15.8512 25.9338 15.9489L22.6965 21.1605L19.6765 15.791C19.6681 15.7716 19.6584 15.7522 19.6474 15.7334C19.3258 15.1743 19.1556 14.5376 19.1556 13.8912C19.1556 11.8503 20.8161 10.1905 22.857 10.1905C24.8979 10.1905 26.5583 11.8503 26.5583 13.8912ZM31.7058 10.591H26.6036C25.6879 9.55247 24.3478 8.89633 22.857 8.89633C21.3661 8.89633 20.026 9.55247 19.1103 10.591H12.6816C12.3237 10.591 12.0345 10.8809 12.0345 11.2381V19.0484C12.0345 19.2199 12.1024 19.3849 12.2241 19.5059L24.4967 31.7792H19.5199L13.139 25.3983C12.954 25.2132 12.6757 25.1582 12.4337 25.2579C12.1917 25.3582 12.0345 25.5943 12.0345 25.8558V31.7785H8.51498V11.2381C8.51498 10.8809 8.22509 10.591 7.8679 10.591H1.29417V7.0722H7.8679C8.22509 7.0722 8.51498 6.78231 8.51498 6.42512V1.38304H12.0345V6.42512C12.0345 6.78231 12.3237 7.0722 12.6816 7.0722H31.7058V10.591ZM31.7058 5.77803H13.3286V1.38304H31.7058V5.77803Z" fill="#12364F"/>
</g>
</g>
</g>
</g>
<defs>
<clipPath id="clip0_330_1246">
<rect width="33" height="33" fill="white" transform="translate(0 0.0810547)"/>
</clipPath>
</defs>
</svg>
