<svg width="24" height="24" viewBox="0 0 24 24" fill="none" xmlns="http://www.w3.org/2000/svg">
<g id="clarity:mobile-solid" clip-path="url(#clip0_157_148878)">
<path id="Vector" d="M16.6667 2.66699H7.33333C6.97971 2.66699 6.64057 2.80747 6.39052 3.05752C6.14048 3.30756 6 3.6467 6 4.00033V20.0003C6 20.3539 6.14048 20.6931 6.39052 20.9431C6.64057 21.1932 6.97971 21.3337 7.33333 21.3337H16.6667C17.0203 21.3337 17.3594 21.1932 17.6095 20.9431C17.8595 20.6931 18 20.3539 18 20.0003V4.00033C18 3.6467 17.8595 3.30756 17.6095 3.05752C17.3594 2.80747 17.0203 2.66699 16.6667 2.66699ZM12.6667 20.0003H11.3333V18.667H12.6667V20.0003ZM7.33333 17.3337V4.00033H16.6667V17.3337H7.33333Z" fill="white"/>
</g>
<defs>
<clipPath id="clip0_157_148878">
<rect width="24" height="24" fill="white"/>
</clipPath>
</defs>
</svg>
