<svg width="60" height="60" viewBox="0 0 60 60" fill="none" xmlns="http://www.w3.org/2000/svg">
<path d="M54.6203 32.2182H28.5273C26.5857 32.2182 25.0117 30.6443 25.0117 28.7026V4.6875C25.0117 2.74582 26.5857 1.17188 28.5273 1.17188H54.6203C56.562 1.17188 58.1359 2.74582 58.1359 4.6875V28.7026C58.1359 30.6442 56.5619 32.2182 54.6203 32.2182Z" fill="#FF8201"/>
<path d="M38.3206 24.3959C37.3648 23.4401 35.8153 23.4401 34.8596 24.3959L34.2245 24.5237C34.6536 22.9068 34.7521 22.3984 34.7521 20.8408C34.7521 14.7764 30.6164 9.67853 25.0117 8.2124V28.7155C25.0117 30.6498 26.5798 32.2179 28.5141 32.2179H42.305L42.4933 32.0296C43.4491 31.0738 43.4491 29.5242 42.4933 28.5686L38.3206 24.3959Z" fill="#FF8201"/>
<path d="M14.9162 33.8939C22.1251 33.8939 27.9691 28.0499 27.9691 20.841C27.9691 13.6321 22.1251 7.78809 14.9162 7.78809C7.70728 7.78809 1.86328 13.6321 1.86328 20.841C1.86328 28.0499 7.70728 33.8939 14.9162 33.8939Z" fill="white"/>
<path d="M27.9683 20.8409C27.9683 20.311 27.9358 19.7888 27.8746 19.2754H23.0106C21.8307 19.2754 20.8742 20.2319 20.8742 21.4117V22.9594C20.8742 23.8833 20.2801 24.7021 19.4018 24.9887C18.4265 25.307 17.4844 25.6984 16.5818 26.1569C15.7569 26.5758 14.7568 26.4188 14.1026 25.7646L13.008 24.67C12.1738 23.8357 10.8211 23.8357 9.98682 24.67L6.34416 28.3125C5.84963 28.8071 5.65065 29.4834 5.7424 30.1263C8.09986 32.4554 11.3394 33.8938 14.9154 33.8938C22.1243 33.8938 27.9683 28.0498 27.9683 20.8409Z" fill="#D2DCFD"/>
<path d="M40.3702 39.075H39.3286C38.7068 39.075 38.1556 38.6752 37.9627 38.084C37.7485 37.4276 37.4851 36.7934 37.1765 36.186C36.8946 35.6308 37.0002 34.9578 37.4405 34.5174L38.1772 33.7806C38.7387 33.219 38.7387 32.3086 38.1772 31.7472L35.7255 29.2955C35.1639 28.7339 34.2535 28.7339 33.6921 29.2955L32.9554 30.0321C32.5152 30.4724 31.842 30.5781 31.2868 30.2962C30.6794 29.9877 30.0452 29.7242 29.3888 29.5099C28.7977 29.3171 28.3978 28.7659 28.3978 28.1441V27.1024C28.3978 26.3084 27.7541 25.6646 26.9599 25.6646H23.4928C22.6986 25.6646 22.0549 26.3083 22.0549 27.1024V28.1441C22.0549 28.7659 21.655 29.3171 21.0638 29.5099C20.4075 29.7242 19.7732 29.9876 19.1659 30.2962C18.6106 30.5781 17.9376 30.4725 17.4972 30.0321L16.7606 29.2955C16.199 28.7339 15.2886 28.7339 14.7271 29.2955L12.2755 31.7472C11.7139 32.3087 11.7139 33.2192 12.2755 33.7806L13.0121 34.5172C13.4524 34.9575 13.5581 35.6306 13.2761 36.1859C12.9677 36.7933 12.7041 37.4275 12.4899 38.0838C12.297 38.6749 11.7459 39.0749 11.1241 39.0749H10.0824C9.28824 39.0749 8.64453 39.7186 8.64453 40.5128V43.9799C8.64453 44.7741 9.28824 45.4178 10.0824 45.4178H11.1241C11.7459 45.4178 12.297 45.8176 12.4899 46.4088C12.7041 47.0652 12.9676 47.6994 13.2761 48.3068C13.5581 48.8621 13.4525 49.5351 13.0121 49.9754L12.2755 50.7121C11.7139 51.2737 11.7139 52.1841 12.2755 52.7455L14.7271 55.1972C15.2887 55.7588 16.1991 55.7588 16.7606 55.1972L17.4972 54.4606C17.9375 54.0203 18.6106 53.9146 19.1659 54.1965C19.7732 54.5051 20.4075 54.7685 21.0638 54.9828C21.6549 55.1756 22.0549 55.7268 22.0549 56.3486V57.3903C22.0549 58.1843 22.6986 58.8281 23.4928 58.8281H26.9599C27.7541 58.8281 28.3978 58.1844 28.3978 57.3903V56.3486C28.3978 55.7268 28.7976 55.1756 29.3888 54.9828C30.0453 54.7685 30.6794 54.5051 31.2868 54.1965C31.842 53.9146 32.515 54.0202 32.9554 54.4606L33.6921 55.1972C34.2536 55.7588 35.1641 55.7588 35.7255 55.1972L38.1772 52.7455C38.7387 52.184 38.7387 51.2735 38.1772 50.7121L37.4404 49.9753C37.0002 49.5351 36.8945 48.8619 37.1764 48.3067C37.4848 47.6993 37.7484 47.0651 37.9626 46.4087C38.1555 45.8176 38.7066 45.4177 39.3284 45.4177H40.3701C41.1643 45.4177 41.808 44.774 41.808 43.9798V40.5127C41.8081 39.7188 41.1644 39.075 40.3702 39.075ZM25.2264 48.1833C21.9477 48.1833 19.2896 45.5253 19.2896 42.2465C19.2896 38.9677 21.9477 36.3096 25.2264 36.3096C28.5052 36.3096 31.1633 38.9677 31.1633 42.2465C31.1633 45.5254 28.5052 48.1833 25.2264 48.1833Z" fill="#256E9C"/>
<path d="M34.5555 17.9694C34.2555 17.9694 33.9558 17.855 33.7269 17.6261L32.4116 16.3109C31.954 15.8533 31.954 15.1113 32.4116 14.6537C32.8693 14.196 33.6111 14.1959 34.069 14.6537L34.5555 15.1402L36.5006 13.1953C36.9584 12.7376 37.7002 12.7376 38.158 13.1953C38.6157 13.6529 38.6156 14.3949 38.158 14.8525L35.3843 17.6261C35.1553 17.855 34.8555 17.9694 34.5555 17.9694Z" fill="white"/>
<path d="M52.4741 16.5825H43.541C42.8939 16.5825 42.3691 16.0579 42.3691 15.4106C42.3691 14.7634 42.8939 14.2388 43.541 14.2388H52.4741C53.1212 14.2388 53.646 14.7634 53.646 15.4106C53.646 16.0579 53.1212 16.5825 52.4741 16.5825Z" fill="white"/>
<path d="M34.5555 25.155C34.2555 25.155 33.9558 25.0407 33.7269 24.8118L32.4116 23.4966C31.954 23.039 31.954 22.2969 32.4116 21.8393C32.8693 21.3817 33.6111 21.3816 34.069 21.8393L34.5555 22.3259L36.5006 20.3808C36.9583 19.9232 37.7001 19.9232 38.158 20.3808C38.6156 20.8384 38.6156 21.5805 38.158 22.0382L35.3843 24.8119C35.1553 25.0407 34.8555 25.155 34.5555 25.155Z" fill="white"/>
<path d="M52.4741 23.7681H43.541C42.8939 23.7681 42.3691 23.2434 42.3691 22.5962C42.3691 21.949 42.8939 21.4243 43.541 21.4243H52.4741C53.1212 21.4243 53.646 21.949 53.646 22.5962C53.646 23.2434 53.1212 23.7681 52.4741 23.7681Z" fill="white"/>
<path d="M34.5555 10.7839C34.2555 10.7839 33.9558 10.6696 33.7269 10.4407L32.4116 9.1255C31.954 8.66788 31.954 7.92585 32.4116 7.46823C32.8693 7.01062 33.6111 7.0105 34.069 7.46823L34.5555 7.95479L36.5006 6.00972C36.9584 5.5521 37.7002 5.5521 38.158 6.00972C38.6157 6.46733 38.6156 7.20937 38.158 7.66698L35.3843 10.4406C35.1553 10.6696 34.8555 10.7839 34.5555 10.7839Z" fill="white"/>
<path d="M52.4741 9.39697H43.541C42.8939 9.39697 42.3691 8.87232 42.3691 8.2251C42.3691 7.57787 42.8939 7.05322 43.541 7.05322H52.4741C53.1212 7.05322 53.646 7.57787 53.646 8.2251C53.646 8.87232 53.1212 9.39697 52.4741 9.39697Z" fill="white"/>
<path d="M18.4415 20.256H16.0879V14.377C16.0879 13.7297 15.5631 13.2051 14.916 13.2051C14.2689 13.2051 13.7441 13.7297 13.7441 14.377V21.4279C13.7441 22.0751 14.2689 22.5998 14.916 22.5998C14.9358 22.5998 14.955 22.5978 14.9746 22.5968C14.9942 22.5978 15.0135 22.5998 15.0332 22.5998H18.4414C19.0885 22.5998 19.6132 22.0751 19.6132 21.4279C19.6132 20.7807 19.0887 20.256 18.4415 20.256Z" fill="#12364F"/>
<path d="M54.633 0H28.5136C25.9362 0 23.8392 2.09695 23.8392 4.67426V9.77168C21.3971 7.7993 18.2926 6.61617 14.9163 6.61617C7.07262 6.61617 0.691406 12.9974 0.691406 20.841C0.691406 24.0912 1.75863 27.1509 3.77789 29.6895C5.7273 32.1405 8.46398 33.8999 11.4873 34.6486L12.1843 35.3457C12.2657 35.4271 12.2849 35.5514 12.2323 35.6551C11.8955 36.3183 11.6077 37.0131 11.3768 37.7202C11.3412 37.8295 11.2399 37.903 11.1251 37.903H10.0834C8.64434 37.903 7.47352 39.0737 7.47352 40.5128V43.9799C7.47352 45.4189 8.64422 46.5896 10.0834 46.5896H11.1251C11.2399 46.5896 11.3413 46.663 11.3768 46.7725C11.6077 47.4796 11.8955 48.1744 12.2323 48.8375C12.2849 48.9412 12.2657 49.0656 12.1846 49.1468L11.4476 49.8837C10.4303 50.9012 10.4303 52.5568 11.4477 53.5744L13.8994 56.0259C14.9169 57.0434 16.5725 57.0436 17.5902 56.0259L18.3268 55.2893C18.4082 55.2079 18.5325 55.189 18.6363 55.2415C19.2998 55.5785 19.9948 55.8663 20.7012 56.0968C20.8105 56.1325 20.884 56.2337 20.884 56.3487V57.3904C20.884 58.8294 22.0547 60.0001 23.4939 60.0001H26.961C28.3999 60.0001 29.5707 58.8294 29.5707 57.3904V56.3487C29.5707 56.2337 29.6442 56.1326 29.7536 56.0968C30.4605 55.8661 31.1552 55.5784 31.8186 55.2415C31.9223 55.1888 32.0467 55.208 32.128 55.2893L32.8647 56.0259C33.8823 57.0434 35.5379 57.0435 36.5555 56.0259L39.0071 53.5743C40.0246 52.5567 40.0246 50.9011 39.007 49.8834L38.2703 49.1467C38.1891 49.0655 38.17 48.9411 38.2226 48.8374C38.5594 48.1744 38.8472 47.4796 39.078 46.7723C39.1137 46.663 39.2149 46.5895 39.3298 46.5895H40.3714C41.8104 46.5895 42.9812 45.4188 42.9812 43.9798V40.5127C42.9812 39.0736 41.8105 37.9029 40.3714 37.9029H39.3298C39.2149 37.9029 39.1136 37.8295 39.078 37.7202C38.8472 37.0131 38.5594 36.3183 38.2226 35.6551C38.17 35.5514 38.1892 35.4271 38.2703 35.3459L39.0071 34.6091C39.3555 34.2607 39.5816 33.8368 39.6914 33.39H54.633C57.2105 33.39 59.3074 31.293 59.3074 28.7157V4.67426C59.3073 2.09695 57.2105 0 54.633 0ZM3.03527 20.8411C3.03527 14.2898 8.36508 8.96004 14.9164 8.96004C21.4676 8.96004 26.7975 14.2898 26.7975 20.8411C26.7975 22.0908 26.6031 23.317 26.2236 24.4928H23.494C22.0549 24.4928 20.8841 25.6635 20.8841 27.1025V28.1442C20.8841 28.2592 20.8107 28.3603 20.7014 28.3959C19.9946 28.6266 19.2998 28.9144 18.6363 29.2513C18.5324 29.3039 18.4083 29.2847 18.327 29.2035L17.5902 28.4667C16.5727 27.4492 14.9169 27.4494 13.8995 28.4667L11.4478 30.9184C11.138 31.2284 10.9238 31.5979 10.8027 31.9901C6.16969 30.2913 3.03527 25.882 3.03527 20.8411ZM39.3297 40.2468H40.3713C40.5179 40.2468 40.6373 40.3662 40.6373 40.5128V43.9799C40.6373 44.1266 40.5179 44.2459 40.3713 44.2459H39.3297C38.1976 44.2459 37.2011 44.9689 36.8497 46.0452C36.6564 46.638 36.4151 47.2204 36.1328 47.7762C35.6195 48.7868 35.8125 50.0037 36.613 50.8041L37.3496 51.5407C37.4535 51.6445 37.4535 51.8133 37.3498 51.917L34.8981 54.3687C34.7945 54.4723 34.6257 54.4725 34.5219 54.3687L33.7853 53.6319C32.9845 52.8314 31.7677 52.6386 30.7574 53.1517C30.2013 53.434 29.6189 53.6753 29.0263 53.8686C27.95 54.22 27.227 55.2165 27.227 56.3486V57.3902C27.227 57.5368 27.1076 57.6562 26.961 57.6562H23.4939C23.3471 57.6562 23.2277 57.5368 23.2277 57.3902V56.3486C23.2277 55.2165 22.5047 54.22 21.4284 53.8686C20.8362 53.6754 20.254 53.4342 19.6976 53.1517C19.3205 52.9602 18.9146 52.867 18.5126 52.867C17.8369 52.867 17.1715 53.1301 16.6696 53.6319L15.9329 54.3687C15.829 54.4724 15.6602 54.4723 15.5568 54.3687L13.1051 51.9171C13.0014 51.8134 13.0014 51.6445 13.105 51.5409L13.842 50.8041C14.6422 50.0034 14.8352 48.7867 14.3221 47.7763C14.0398 47.2205 13.7985 46.6382 13.6051 46.0453C13.2538 44.9692 12.2572 44.246 11.1252 44.246H10.0835C9.9368 44.246 9.81738 44.1267 9.81738 43.98V40.5129C9.81738 40.3663 9.9368 40.2469 10.0835 40.2469H11.1252C12.2572 40.2469 13.2538 39.5238 13.6051 38.4476C13.7985 37.855 14.0398 37.2725 14.3221 36.7166C14.8352 35.7061 14.6422 34.4893 13.8417 33.6887L13.1051 32.9521C13.0014 32.8484 13.0014 32.6796 13.1051 32.5759L15.5566 30.1242C15.6606 30.0206 15.8292 30.0204 15.9329 30.1242L16.6697 30.8611C17.4701 31.6614 18.6866 31.8545 19.6976 31.3412C20.2537 31.0588 20.8362 30.8175 21.4286 30.6243C22.5048 30.273 23.2279 29.2765 23.2279 28.1443V27.1027C23.2279 26.9561 23.3473 26.8366 23.494 26.8366H26.9611C27.1077 26.8366 27.2271 26.9561 27.2271 27.1027V28.1443C27.2271 29.2764 27.9502 30.2729 29.0264 30.6243C29.619 30.8176 30.2013 31.0589 30.7574 31.3412C31.7679 31.8545 32.9849 31.6614 33.7854 30.861L34.5219 30.1243C34.6257 30.0207 34.7944 30.0206 34.8982 30.1243L37.3499 32.576C37.4536 32.6797 37.4536 32.8485 37.3499 32.9522L36.6131 33.6889C35.8126 34.4895 35.6196 35.7063 36.1329 36.7168C36.4152 37.2728 36.6565 37.8551 36.8498 38.4478C37.2011 39.5237 38.1976 40.2468 39.3297 40.2468ZM56.9636 28.7159C56.9636 30.0009 55.918 31.0464 54.6329 31.0464L39.1414 31.0673C39.0981 31.0168 39.0547 30.9663 39.007 30.9185L36.5552 28.4668C35.5378 27.4493 33.8821 27.4495 32.8645 28.4668L32.128 29.2035C32.0467 29.2847 31.9223 29.304 31.8184 29.2513C31.1551 28.9144 30.4604 28.6267 29.7536 28.3959C29.6441 28.3602 29.5706 28.2591 29.5706 28.1441V27.1024C29.5706 26.2472 29.1571 25.4868 28.5196 25.0105C28.9321 23.664 29.1411 22.2645 29.1411 20.841C29.1411 17.5788 28.0366 14.5703 26.183 12.1679V4.67426C26.183 3.38918 27.2285 2.34375 28.5136 2.34375H54.633C55.9181 2.34375 56.9637 3.38918 56.9637 4.67426V28.7159H56.9636Z" fill="#12364F"/>
<path d="M25.2279 35.1377C21.3082 35.1377 18.1191 38.3266 18.1191 42.2464C18.1191 46.1662 21.3082 49.3551 25.2279 49.3551C29.1475 49.3551 32.3366 46.1662 32.3366 42.2464C32.3366 38.3266 29.1475 35.1377 25.2279 35.1377ZM25.2279 47.0114C22.6004 47.0114 20.4629 44.8737 20.4629 42.2464C20.4629 39.6191 22.6004 37.4814 25.2279 37.4814C27.8553 37.4814 29.9928 39.6189 29.9928 42.2464C29.9928 44.8739 27.8553 47.0114 25.2279 47.0114Z" fill="#12364F"/>
</svg>
